<svg viewBox="0 0 16 16" xmlns="http://www.w3.org/2000/svg">
  <path d="m2.678 10.625a4.179 4.179 0 0 1 2.7 2.7l7.562-7.574-2.691-2.691zm.309 2.388a2.931 2.931 0 0 0 -.67-.5 2.954 2.954 0 0 0 -.8-.3l-1.5 3.435a.25.25 0 0 0 .329.329l3.435-1.5a2.952 2.952 0 0 0 -.3-.8 2.931 2.931 0 0 0 -.494-.664zm12.1-11.53-.569-.569a1.5 1.5 0 0 0 -2.121 0l-.733.732 2.69 2.69.732-.733a1.5 1.5 0 0 0 0-2.121zm-.001-.001-.568-.568a1.5 1.5 0 0 0 -2.121 0l-.732.732 2.69 2.69.731-.733a1.5 1.5 0 0 0 0-2.121zm-10.733 10.165a4.192 4.192 0 0 1 1.022 1.674l7.565-7.57-2.691-2.691-7.571 7.565a4.2 4.2 0 0 1 1.675 1.022zm-2.833.567-1.5 3.435a.25.25 0 0 0 .329.329l3.435-1.5a2.933 2.933 0 0 0 -1.468-1.968 2.95 2.95 0 0 0 -.796-.296z" />
  <path d="m0 0h16v16h-16z" fill="none" />
</svg>