<svg width="32" height="32" viewBox="0 0 12 12" fill="none" xmlns="http://www.w3.org/2000/svg">
<path d="M8.25 2.25V6.00586L7.5 6.75586V1.5H9.75V4.61133C9.59766 4.69727 9.46484 4.79688 9.35156 4.91016C9.24219 5.01953 9.125 5.13672 9 5.26172V2.25H8.25ZM3.75 3V9.75H1.5V3H3.75ZM3 9V3.75H2.25V9H3ZM12 6.41016C12 6.5625 11.9707 6.71094 11.9121 6.85547C11.8535 7 11.7695 7.12695 11.6602 7.23633L7.45898 11.4375L5.25 11.9883L5.80078 9.7793L10.002 5.58398C10.1152 5.4707 10.2402 5.38672 10.377 5.33203C10.5176 5.27734 10.668 5.25 10.8281 5.25C10.9922 5.25 11.1445 5.2793 11.2852 5.33789C11.4297 5.39648 11.5547 5.47852 11.6602 5.58398C11.7656 5.68555 11.8477 5.80859 11.9062 5.95312C11.9688 6.09375 12 6.24609 12 6.41016ZM11.25 6.41016C11.25 6.28516 11.2109 6.18555 11.1328 6.11133C11.0547 6.03711 10.9531 6 10.8281 6C10.7734 6 10.7207 6.00977 10.6699 6.0293C10.6191 6.04492 10.5742 6.07227 10.5352 6.11133L6.48047 10.166L6.28125 10.957L7.07227 10.7578L11.127 6.70898C11.209 6.62695 11.25 6.52734 11.25 6.41016ZM5.25 9H5.25586C5.20508 9.05078 5.1543 9.10156 5.10352 9.15234C5.05664 9.19922 5.00586 9.24805 4.95117 9.29883C4.93164 9.37695 4.91211 9.45312 4.89258 9.52734C4.87695 9.60156 4.85938 9.67578 4.83984 9.75H4.5V4.5H6.75V7.50586L6.00586 8.25H6V5.25H5.25V9ZM0.75 0.75V10.5H4.65234L4.46484 11.25H0V0.75H0.75Z" fill="#252423"/>
</svg>
