<svg xmlns="http://www.w3.org/2000/svg" viewBox="0 0 32 32"><title>icons</title><polygon points="14.27 24.914 16.452 14.905 11.359 17.72 9.178 27.729 14.27 24.914" style="fill-opacity:0.4"/><polygon points="22.574 17.721 20.392 27.729 26.127 24.56 28.309 14.551 22.574 17.721" style="fill-opacity:0.4"/><polygon points="10.229 17.72 5.877 14.551 3.695 24.56 8.048 27.729 10.229 17.72" style="fill-opacity:0.4"/><path d="M24.68611,8.93621c0,2.57679-4.44148,11.79425-4.44148,11.79425S15.80316,11.513,15.80316,8.93621a4.55772,4.55772,0,0,1,4.44147-4.66568A4.55773,4.55773,0,0,1,24.68611,8.93621Z" style="fill-opacity:0.2;stroke:#000;stroke-linejoin:round"/><ellipse cx="20.24463" cy="8.80549" rx="2.11718" ry="2.22406"/><path d="M20.24465,20.73044s-1.34948-2.8031-2.561-5.74914l-.104-.07575L15.39785,24.914l3.86646,2.81549L21.271,18.52225C20.67672,19.83372,20.24465,20.73044,20.24465,20.73044Z" style="fill-opacity:0.4"/></svg>