<svg xmlns="http://www.w3.org/2000/svg" viewBox="0 0 32 32"><title>icons</title><path d="M5,5.75v20.5a.75.75,0,0,0,.75.75H22.68934a.75.75,0,0,0,.53033-.21967l3.56066-3.56066A.75.75,0,0,0,27,22.68934V5.75A.75.75,0,0,0,26.25,5H5.75A.75.75,0,0,0,5,5.75ZM17.25,25h-4.5a.75.75,0,0,1-.75-.75v-.5a.75.75,0,0,0-.75-.75h-.5a.75.75,0,0,0-.75.75v.5a.75.75,0,0,1-.75.75h-.5A.75.75,0,0,1,8,24.25v-3.5A.75.75,0,0,1,8.75,20h8.5a.75.75,0,0,1,.75.75v3.5A.75.75,0,0,1,17.25,25Zm6-10H8.75A.75.75,0,0,1,8,14.25V7.75A.75.75,0,0,1,8.75,7h14.5a.75.75,0,0,1,.75.75v6.5A.75.75,0,0,1,23.25,15Z"/></svg>