<svg xmlns="http://www.w3.org/2000/svg" viewBox="0 0 32 32"><title>icons</title><rect x="3.60059" y="10.05176" width="10.72217" height="14.81641" rx="0.25" style="opacity:0.2"/><path d="M13.82252,10.55143V24.3678H4.10076V10.55143h9.72176m.25-1H3.85076a.75.75,0,0,0-.75.75V24.6178a.75.75,0,0,0,.75.75H14.07252a.75.75,0,0,0,.75-.75V10.30143a.75.75,0,0,0-.75-.75Z"/><line x1="29.89924" y1="6.6322" x2="2.10076" y2="6.6322" style="fill:none;stroke:#000;stroke-linecap:round;stroke-miterlimit:10;stroke-width:1.5px"/><rect x="17.67725" y="10.05176" width="10.72217" height="7.90332" rx="0.25" style="opacity:0.2"/><path d="M27.89924,10.55143v6.90371H18.17748V10.55143h9.72176m.25-1H17.92748a.75.75,0,0,0-.75.75v7.40371a.75.75,0,0,0,.75.75H28.14924a.75.75,0,0,0,.75-.75V10.30143a.75.75,0,0,0-.75-.75Z"/></svg>