<?xml version="1.0" encoding="utf-8"?>
<!-- Generator: Adobe Illustrator 25.1.0, SVG Export Plug-In . SVG Version: 6.00 Build 0)  -->
<svg version="1.1" id="Layer_1" xmlns="http://www.w3.org/2000/svg" xmlns:xlink="http://www.w3.org/1999/xlink" x="0px" y="0px"
	 width="16px" height="16px" viewBox="0 0 16 16" enable-background="new 0 0 16 16" xml:space="preserve">
<g>
	<g>
		<path d="M8.286,5.139L7.773,6.027c0.345,0.064,0.645,0.247,0.864,0.504l0.516-0.893C8.902,5.416,8.61,5.247,8.286,5.139
			L8.286,5.139z"/>
	</g>
	<g>
		<path d="M6.714,5.139C6.39,5.247,6.098,5.416,5.848,5.638l0.516,0.893c0.219-0.257,0.519-0.44,0.864-0.504L6.714,5.139
			L6.714,5.139z"/>
	</g>
	<g>
		<path d="M6.363,8.469L5.848,9.362c0.25,0.222,0.542,0.391,0.866,0.5l0.513-0.889C6.882,8.909,6.582,8.725,6.363,8.469L6.363,8.469
			z"/>
	</g>
	<g>
		<path d="M8.637,8.469c-0.219,0.257-0.519,0.44-0.864,0.504l0.513,0.889c0.324-0.108,0.616-0.278,0.866-0.5L8.637,8.469
			L8.637,8.469z"/>
	</g>
	<g>
		<path d="M4.05,7h-1C3.032,7.166,3,7.329,3,7.5S3.032,7.834,3.051,8h1C4.027,7.835,4,7.671,4,7.5S4.027,7.165,4.05,7L4.05,7z"/>
	</g>
	<g>
		<path d="M6.092,7H5.051C5.018,7.162,5,7.329,5,7.5S5.018,7.838,5.051,8h1.041C6.036,7.843,6,7.676,6,7.5S6.036,7.157,6.092,7
			L6.092,7z"/>
	</g>
	<g>
		<path d="M10.817,0.755l-0.513,0.888C9.454,1.235,8.506,1,7.5,1S5.546,1.235,4.696,1.643L4.183,0.755l-0.866,0.5l0.51,0.884
			C2.25,3.221,1.179,4.982,1.025,7H0v1h1.025c0.154,2.018,1.225,3.779,2.802,4.861l-0.51,0.884l0.866,0.5l0.513-0.888
			C5.546,13.765,6.494,14,7.5,14s1.954-0.235,2.804-0.643l0.513,0.888l0.866-0.5l-0.51-0.884c1.577-1.083,2.648-2.843,2.802-4.861
			H15V7h-1.025c-0.154-2.018-1.225-3.779-2.802-4.861l0.51-0.884L10.817,0.755L10.817,0.755z M7.5,13
			c-0.831,0-1.616-0.19-2.322-0.521C4.886,12.342,4.608,12.183,4.347,12C2.93,11.004,2,9.36,2,7.5S2.93,3.996,4.347,3
			c0.261-0.183,0.539-0.342,0.83-0.479C5.884,2.19,6.669,2,7.5,2s1.616,0.19,2.323,0.522c0.291,0.136,0.569,0.296,0.83,0.479
			c1.289,0.906,2.172,2.347,2.322,4H7.5C7.224,7,7,7.224,7,7.5C7,7.776,7.224,8,7.5,8h5.475c-0.15,1.653-1.033,3.094-2.322,4
			c-0.261,0.183-0.539,0.343-0.83,0.479C9.116,12.81,8.331,13,7.5,13L7.5,13z"/>
	</g>
	<g>
		<path d="M5.343,10.237l-0.504,0.872c0.268,0.198,0.552,0.374,0.861,0.509l0.504-0.873C5.889,10.62,5.604,10.443,5.343,10.237
			L5.343,10.237z"/>
	</g>
	<g>
		<path d="M9.3,3.382L8.796,4.255C9.111,4.38,9.396,4.557,9.657,4.763l0.504-0.872C9.893,3.693,9.609,3.517,9.3,3.382L9.3,3.382z"/>
	</g>
	<g>
		<path d="M5.7,3.382C5.391,3.517,5.107,3.693,4.839,3.891l0.504,0.872C5.604,4.557,5.889,4.38,6.204,4.255L5.7,3.382L5.7,3.382z"/>
	</g>
	<g>
		<path d="M9.657,10.237c-0.262,0.207-0.547,0.383-0.861,0.509L9.3,11.618c0.309-0.135,0.593-0.311,0.861-0.509L9.657,10.237
			L9.657,10.237z"/>
	</g>
</g>
</svg>
