<svg xmlns="http://www.w3.org/2000/svg" viewBox="0 0 32 32"><title>icons</title><path d="M27.73633,15.45068c-.21387-.19873-5.31641-4.875-11.73633-4.875S4.47754,15.252,4.26367,15.45068a.75023.75023,0,0,0,0,1.09864c.21387.19873,5.31641,4.875,11.73633,4.875s11.52246-4.67627,11.73633-4.875a.75023.75023,0,0,0,0-1.09864ZM12.98169,19.54175A19.43884,19.43884,0,0,1,5.94238,15.999a19.35233,19.35233,0,0,1,7.04181-3.54278,4.61568,4.61568,0,0,0-.0025,7.08551ZM14.87787,16.22a1.61,1.61,0,1,1,1.61-1.61A1.61,1.61,0,0,1,14.87787,16.22Zm4.13794,3.32373a4.61568,4.61568,0,0,0,.0025-7.08551A19.43884,19.43884,0,0,1,26.05762,16.001,19.35233,19.35233,0,0,1,19.01581,19.54376Z" style="fill-opacity:0.2"/></svg>