<?xml version="1.0" encoding="utf-8"?>
<!-- Generator: Adobe Illustrator 25.1.0, SVG Export Plug-In . SVG Version: 6.00 Build 0)  -->
<svg version="1.1" id="Layer_1" xmlns="http://www.w3.org/2000/svg" xmlns:xlink="http://www.w3.org/1999/xlink" x="0px" y="0px"
	 width="16px" height="16px" viewBox="0 0 16 16" enable-background="new 0 0 16 16" xml:space="preserve">
<path d="M14.5,6c-0.127,0-0.248,0.021-0.366,0.05c0,0,0,0,0,0l-2.437-3.655l0,0C11.885,2.144,12,1.837,12,1.5
	C12,0.672,11.328,0,10.5,0S9,0.672,9,1.5c0,0.337,0.115,0.644,0.303,0.895l0,0L6.866,6.05c0,0,0,0,0,0C6.748,6.021,6.627,6,6.5,6
	C6.21,6,5.941,6.086,5.712,6.229l0,0l-2.8-2.24l0,0C2.965,3.835,3,3.672,3,3.5C3,2.672,2.328,2,1.5,2S0,2.672,0,3.5
	c0,0.652,0.419,1.202,1,1.408c0,0,0,0,0,0v5.184c0,0,0,0,0,0c-0.581,0.207-1,0.756-1,1.408C0,12.328,0.672,13,1.5,13
	S3,12.328,3,11.5c0-0.172-0.035-0.335-0.088-0.489l0,0l2.8-2.24l0,0C5.941,8.914,6.21,9,6.5,9c0.127,0,0.248-0.021,0.366-0.05
	c0,0,0,0,0,0l2.437,3.655l0,0C9.115,12.856,9,13.163,9,13.5c0,0.828,0.672,1.5,1.5,1.5s1.5-0.672,1.5-1.5S11.328,12,10.5,12
	c-0.127,0-0.248,0.021-0.366,0.05c0,0,0,0,0,0L7.698,8.395l0,0C7.787,8.275,7.857,8.143,7.908,8c0,0,0,0,0,0h5.184c0,0,0,0,0,0
	c0.207,0.581,0.756,1,1.408,1C15.328,9,16,8.328,16,7.5S15.328,6,14.5,6z M11.1,13.5c0,0.331-0.269,0.6-0.6,0.6s-0.6-0.269-0.6-0.6
	c0-0.331,0.269-0.6,0.6-0.6S11.1,13.169,11.1,13.5z M10.5,0.9c0.331,0,0.6,0.269,0.6,0.6c0,0.331-0.269,0.6-0.6,0.6
	S9.9,1.831,9.9,1.5C9.9,1.169,10.169,0.9,10.5,0.9z M7.698,6.605l2.437-3.655c0,0,0,0,0,0C10.252,2.979,10.373,3,10.5,3
	s0.248-0.021,0.366-0.05c0,0,0,0,0,0l2.437,3.655l0,0C13.213,6.725,13.143,6.857,13.092,7c0,0,0,0,0,0H7.908c0,0,0,0,0,0
	C7.857,6.857,7.787,6.725,7.698,6.605L7.698,6.605z M5.341,6.558C5.338,6.563,5.334,6.567,5.33,6.572
	C5.334,6.567,5.338,6.563,5.341,6.558z M2.67,4.428C2.666,4.433,2.662,4.437,2.659,4.442C2.662,4.437,2.666,4.433,2.67,4.428z
	 M1.5,2.9c0.331,0,0.6,0.269,0.6,0.6c0,0.331-0.269,0.6-0.6,0.6S0.9,3.831,0.9,3.5C0.9,3.169,1.169,2.9,1.5,2.9z M1.5,12.1
	c-0.331,0-0.6-0.269-0.6-0.6c0-0.331,0.269-0.6,0.6-0.6s0.6,0.269,0.6,0.6C2.1,11.831,1.831,12.1,1.5,12.1z M2.659,10.558
	c0.004,0.005,0.007,0.009,0.011,0.013C2.666,10.567,2.662,10.563,2.659,10.558z M2.288,10.229L2.288,10.229
	C2.198,10.173,2.101,10.128,2,10.092c0,0,0,0,0,0V4.908c0,0,0,0,0,0c0.102-0.036,0.198-0.081,0.288-0.137l0,0l2.8,2.24l0,0
	C5.035,7.165,5,7.328,5,7.5s0.035,0.335,0.088,0.489l0,0L2.288,10.229z M5.33,8.428c0.004,0.004,0.007,0.009,0.011,0.013
	C5.338,8.437,5.334,8.433,5.33,8.428z M5.9,7.5c0-0.331,0.269-0.6,0.6-0.6s0.6,0.269,0.6,0.6c0,0.331-0.269,0.6-0.6,0.6
	S5.9,7.831,5.9,7.5z M14.5,8.1c-0.331,0-0.6-0.269-0.6-0.6c0-0.331,0.269-0.6,0.6-0.6s0.6,0.269,0.6,0.6
	C15.1,7.831,14.831,8.1,14.5,8.1z"/>
</svg>
