<svg xmlns="http://www.w3.org/2000/svg" viewBox="0 0 32 32"><title>icons</title><line x1="28.89924" y1="16" x2="29.89924" y2="16" style="fill:none;stroke:#000;stroke-linecap:round;stroke-miterlimit:10;stroke-width:1.5px"/><line x1="14.82252" y1="16" x2="17.17748" y2="16" style="fill:none;stroke:#000;stroke-linecap:round;stroke-miterlimit:10;stroke-width:1.5px"/><line x1="2.10076" y1="16" x2="3.10076" y2="16" style="fill:none;stroke:#000;stroke-linecap:round;stroke-miterlimit:10;stroke-width:1.5px"/><rect x="3.60059" y="8.5918" width="10.72217" height="14.81641" rx="0.25" style="opacity:0.2"/><path d="M13.82252,9.09181V22.90819H4.10076V9.09181h9.72176m.25-1H3.85076a.75.75,0,0,0-.75.75V23.15819a.75.75,0,0,0,.75.75H14.07252a.75.75,0,0,0,.75-.75V8.84181a.75.75,0,0,0-.75-.75Z"/><rect x="17.67725" y="12.04785" width="10.72217" height="7.9043" rx="0.25" style="opacity:0.2"/><path d="M27.89924,12.54814v6.90372H18.17748V12.54814h9.72176m.25-1H17.92748a.75.75,0,0,0-.75.75v7.40372a.75.75,0,0,0,.75.75H28.14924a.75.75,0,0,0,.75-.75V12.29814a.75.75,0,0,0-.75-.75Z"/></svg>