<svg xmlns="http://www.w3.org/2000/svg" viewBox="0 0 32 32"><title>icons</title><path d="M10.24006,25.3523a.7608.7608,0,0,1,.21289-.53369.73712.73712,0,0,1,.23731-.16211.74946.74946,0,0,1,.58789,0,.772.772,0,0,1,.24023.16211.7809.7809,0,0,1,.16211.23975.76345.76345,0,0,1,0,.59131.79136.79136,0,0,1-.16211.23681.73961.73961,0,0,1-.24023.15918.79106.79106,0,0,1-.58789,0,.707.707,0,0,1-.23731-.15918.77485.77485,0,0,1-.15625-.23681A.756.756,0,0,1,10.24006,25.3523Z"/><path d="M19.00569,21.71656a6.99155,6.99155,0,0,1-.24219,1.95313,4.09446,4.09446,0,0,1-.66308,1.36474,2.67249,2.67249,0,0,1-.99317.8042,2.987,2.987,0,0,1-2.4541,0,2.68605,2.68605,0,0,1-.98731-.8042,4.03651,4.03651,0,0,1-.66015-1.36474,7.0723,7.0723,0,0,1-.23926-1.95313,7.1018,7.1018,0,0,1,.23926-1.95605,4.07135,4.07135,0,0,1,.66015-1.3711,2.67531,2.67531,0,0,1,.98731-.80712,2.98691,2.98691,0,0,1,2.4541,0,2.66187,2.66187,0,0,1,.99317.80712,4.12987,4.12987,0,0,1,.66308,1.3711A7.02069,7.02069,0,0,1,19.00569,21.71656Zm-1.10938,0a7.06341,7.06341,0,0,0-.165-1.65332,3.30973,3.30973,0,0,0-.44433-1.07666,1.67515,1.67515,0,0,0-.64453-.585,1.72754,1.72754,0,0,0-1.52442,0,1.64812,1.64812,0,0,0-.6416.585,3.354,3.354,0,0,0-.4414,1.07666,7.01113,7.01113,0,0,0-.165,1.65332,6.96889,6.96889,0,0,0,.165,1.64991,3.35735,3.35735,0,0,0,.4414,1.07421,1.65174,1.65174,0,0,0,.6416.585,1.73175,1.73175,0,0,0,1.52442,0,1.67888,1.67888,0,0,0,.64453-.585,3.3129,3.3129,0,0,0,.44433-1.07421A7.02076,7.02076,0,0,0,17.89631,21.71656Z"/><path d="M25.96565,21.71656a6.99155,6.99155,0,0,1-.24219,1.95313,4.09446,4.09446,0,0,1-.66308,1.36474,2.67249,2.67249,0,0,1-.99317.8042,2.987,2.987,0,0,1-2.4541,0,2.68594,2.68594,0,0,1-.9873-.8042,4.03652,4.03652,0,0,1-.66016-1.36474,7.0723,7.0723,0,0,1-.23926-1.95313,7.1018,7.1018,0,0,1,.23926-1.95605,4.07136,4.07136,0,0,1,.66016-1.3711,2.6752,2.6752,0,0,1,.9873-.80712,2.98691,2.98691,0,0,1,2.4541,0,2.66187,2.66187,0,0,1,.99317.80712,4.12987,4.12987,0,0,1,.66308,1.3711A7.02069,7.02069,0,0,1,25.96565,21.71656Zm-1.10938,0a7.064,7.064,0,0,0-.165-1.65332,3.30994,3.30994,0,0,0-.44434-1.07666,1.67515,1.67515,0,0,0-.64453-.585,1.72754,1.72754,0,0,0-1.52442,0,1.64812,1.64812,0,0,0-.6416.585,3.354,3.354,0,0,0-.4414,1.07666,7.01113,7.01113,0,0,0-.165,1.65332,6.96889,6.96889,0,0,0,.165,1.64991,3.35735,3.35735,0,0,0,.4414,1.07421,1.65174,1.65174,0,0,0,.6416.585,1.73175,1.73175,0,0,0,1.52442,0,1.67888,1.67888,0,0,0,.64453-.585,3.31312,3.31312,0,0,0,.44434-1.07421A7.02135,7.02135,0,0,0,24.85627,21.71656Z"/><path d="M17.2,13.93139a.76082.76082,0,0,1,.2129-.53369.7368.7368,0,0,1,.2373-.16211.74934.74934,0,0,1,.58789,0,.77173.77173,0,0,1,.24023.16211.78068.78068,0,0,1,.16211.23974.76345.76345,0,0,1,0,.59131.79122.79122,0,0,1-.16211.23682.73982.73982,0,0,1-.24023.15918.79106.79106,0,0,1-.58789,0,.70719.70719,0,0,1-.2373-.15918.77472.77472,0,0,1-.15625-.23682A.75583.75583,0,0,1,17.2,13.93139Z"/><path d="M25.96565,10.29564a6.9915,6.9915,0,0,1-.24219,1.95313,4.09461,4.09461,0,0,1-.66308,1.36475,2.67246,2.67246,0,0,1-.99317.80419,2.98691,2.98691,0,0,1-2.4541,0,2.68591,2.68591,0,0,1-.9873-.80419,4.03667,4.03667,0,0,1-.66016-1.36475,7.07225,7.07225,0,0,1-.23926-1.95313,7.1018,7.1018,0,0,1,.23926-1.95605,4.07121,4.07121,0,0,1,.66016-1.37109,2.67523,2.67523,0,0,1,.9873-.80713,2.987,2.987,0,0,1,2.4541,0,2.66189,2.66189,0,0,1,.99317.80713,4.12972,4.12972,0,0,1,.66308,1.37109A7.02069,7.02069,0,0,1,25.96565,10.29564Zm-1.10938,0a7.064,7.064,0,0,0-.165-1.65332,3.31,3.31,0,0,0-.44434-1.07666,1.67515,1.67515,0,0,0-.64453-.585,1.72754,1.72754,0,0,0-1.52442,0,1.64812,1.64812,0,0,0-.6416.585,3.35411,3.35411,0,0,0-.4414,1.07666,7.01113,7.01113,0,0,0-.165,1.65332,6.96883,6.96883,0,0,0,.165,1.64991,3.35751,3.35751,0,0,0,.4414,1.07422,1.65189,1.65189,0,0,0,.6416.585,1.73184,1.73184,0,0,0,1.52442,0,1.679,1.679,0,0,0,.64453-.585,3.31328,3.31328,0,0,0,.44434-1.07422A7.02129,7.02129,0,0,0,24.85627,10.29564Z"/><path d="M13.3072,8.91435H10.57841V6.89471a.5746.5746,0,0,0-.98091-.40633L6.20267,9.88321a.57454.57454,0,0,0,0,.81261L9.5975,14.0907a.5746.5746,0,0,0,.98091-.40633V11.66473H13.3072A.56275.56275,0,0,0,13.87,11.102V9.4771A.56275.56275,0,0,0,13.3072,8.91435Z"/></svg>