<svg width="32" height="32" viewBox="0 0 18 16" fill="none" xmlns="http://www.w3.org/2000/svg">
    <path
        transform="translate(1, 1.5) scale(0.75)"
        d="M18 10.25H14.3174L17.5693 15.875H5.22949L7.57617 11.8057C7.18945 12.0283 6.78516 12.2012 6.36328 12.3242C5.94141 12.4414 5.50781 12.5 5.0625 12.5C4.36523 12.5 3.70898 12.3682 3.09375 12.1045C2.47852 11.835 1.94238 11.4717 1.48535 11.0146C1.02832 10.5576 0.665039 10.0215 0.395508 9.40625C0.131836 8.79102 0 8.13477 0 7.4375C0 6.74023 0.131836 6.08398 0.395508 5.46875C0.665039 4.85352 1.02832 4.31738 1.48535 3.86035C1.94238 3.40332 2.47852 3.04297 3.09375 2.7793C3.70898 2.50977 4.36523 2.375 5.0625 2.375C5.56055 2.375 6.04688 2.44824 6.52148 2.59473C7.00195 2.73535 7.45312 2.94629 7.875 3.22754V0.125H18V10.25ZM5.0625 11.375C5.60742 11.375 6.11719 11.2725 6.5918 11.0674C7.07227 10.8564 7.48828 10.5723 7.83984 10.2148C8.19727 9.85742 8.47852 9.44141 8.68359 8.9668C8.89453 8.48633 9 7.97656 9 7.4375C9 6.89844 8.89453 6.3916 8.68359 5.91699C8.47852 5.43652 8.19727 5.01758 7.83984 4.66016C7.48828 4.30273 7.07227 4.02148 6.5918 3.81641C6.11719 3.60547 5.60742 3.5 5.0625 3.5C4.51758 3.5 4.00488 3.60547 3.52441 3.81641C3.0498 4.02148 2.63379 4.30273 2.27637 4.66016C1.9248 5.01172 1.64355 5.42773 1.43262 5.9082C1.22754 6.38281 1.125 6.89258 1.125 7.4375C1.125 7.98242 1.22754 8.49512 1.43262 8.97559C1.64355 9.4502 1.9248 9.86621 2.27637 10.2236C2.63379 10.5752 3.0498 10.8564 3.52441 11.0674C4.00488 11.2725 4.51758 11.375 5.0625 11.375ZM15.6182 14.75C14.9092 13.5254 14.2061 12.3066 13.5088 11.0938C12.8115 9.88086 12.1084 8.66211 11.3994 7.4375C10.6904 8.66211 9.9873 9.88086 9.29004 11.0938C8.59277 12.3066 7.88965 13.5254 7.18066 14.75H15.6182ZM16.875 1.25H9V4.2998C9.35742 4.73926 9.63281 5.22559 9.82617 5.75879C10.0195 6.28613 10.1191 6.83398 10.125 7.40234L11.3994 5.1875L13.667 9.125H16.875V1.25Z"
        fill="#252525" />
</svg>