<?xml version="1.0" encoding="utf-8"?>
<!-- Generator: Adobe Illustrator 25.1.0, SVG Export Plug-In . SVG Version: 6.00 Build 0)  -->
<svg version="1.1" id="Layer_1" xmlns="http://www.w3.org/2000/svg" xmlns:xlink="http://www.w3.org/1999/xlink" x="0px" y="0px"
	 width="16px" height="16px" viewBox="0 0 16 16" enable-background="new 0 0 16 16" xml:space="preserve">
<path d="M2.681,10.644l0.926,0.377L2,14.969V15H1.987H1V0h1v12.317L2.681,10.644z M8,12.317V0H7.552h-0.54H7v0.031L5.393,3.979
	l0.926,0.377L7,2.683V15h0.987H8v-0.031l1.607-3.948l-0.926-0.377L8,12.317z M3.184,9.408l0.926,0.377l1.707-4.194L4.891,5.214
	L3.184,9.408z M10.891,5.214L9.184,9.408l0.926,0.377l1.707-4.194L10.891,5.214z M14.914,13L14,13.914V0h-0.987H13v0.031
	l-1.607,3.948l0.926,0.377L13,2.683v11.231L12.086,13l-0.707,0.707l2.121,2.121l2.121-2.121L14.914,13z"/>
</svg>
