<?xml version="1.0" encoding="utf-8"?>
<!-- Generator: Adobe Illustrator 25.1.0, SVG Export Plug-In . SVG Version: 6.00 Build 0)  -->
<svg version="1.1" id="Layer_1" xmlns="http://www.w3.org/2000/svg" xmlns:xlink="http://www.w3.org/1999/xlink" x="0px" y="0px"
	 width="16px" height="16px" viewBox="0 0 16 16" enable-background="new 0 0 16 16" xml:space="preserve">
<g>
	<path d="M14,0h-1v2h1V0L14,0z M10,0H9v2h1V0L10,0z M6,0H5v2h1V0L6,0z M2,0H1v2h1V0L2,0z M14,3h-1v2h1V3L14,3z M10,3H9v2h1V3L10,3z
		 M6,3H5v2h1V3L6,3z M2,3H1v2h1V3L2,3z M14,6h-1v2h1V6L14,6z M10,6H9v2h1V6L10,6z M6,6H5v2h1V6L6,6z M2,6H1v2h1V6L2,6z M14,9h-1v2h1
		V9L14,9z M10,9H9v2h1V9L10,9z M6,9H5v2h1V9L6,9z M2,9H1v2h1V9L2,9z M14,12h-1v1H2v-1H1v3h1v-1h11v1h1V12L14,12z"/>
</g>
</svg>
