<?xml version="1.0" encoding="utf-8"?>
<!-- Generator: Adobe Illustrator 25.1.0, SVG Export Plug-In . SVG Version: 6.00 Build 0)  -->
<svg version="1.1" id="Layer_1" xmlns="http://www.w3.org/2000/svg" xmlns:xlink="http://www.w3.org/1999/xlink" x="0px" y="0px"
	 width="16px" height="16px" viewBox="0 0 16 16" enable-background="new 0 0 16 16" xml:space="preserve">
<g>
	<path d="M10.766,1.558c0.242,0.038,0.483,0.082,0.723,0.13C11.249,1.64,11.008,1.596,10.766,1.558L10.766,1.558z M11.489,1.688
		c0.317,0.064,0.632,0.137,0.945,0.218C12.121,1.825,11.806,1.752,11.489,1.688L11.489,1.688z"/>
	<path d="M14.353,2.521c0.524,0.202,1.042,0.422,1.548,0.676C15.395,2.943,14.877,2.722,14.353,2.521L14.353,2.521z"/>
	<path d="M5.234,1.558C4.992,1.596,4.751,1.64,4.511,1.688C4.751,1.64,4.992,1.596,5.234,1.558L5.234,1.558z M4.511,1.688
		C4.194,1.752,3.879,1.825,3.566,1.906C3.879,1.825,4.194,1.752,4.511,1.688L4.511,1.688z"/>
	<path d="M1.647,2.521C1.123,2.722,0.605,2.943,0.098,3.197C0.605,2.943,1.123,2.723,1.647,2.521L1.647,2.521z"/>
	<path d="M3.398,1.95c-0.321,0.086-0.639,0.18-0.956,0.284C2.759,2.131,3.078,2.037,3.398,1.95L3.398,1.95z M2.443,2.235
		C2.238,2.302,2.034,2.373,1.831,2.448C2.034,2.373,2.238,2.302,2.443,2.235L2.443,2.235z"/>
	<path d="M12.602,1.95c0.321,0.086,0.639,0.181,0.956,0.284C13.241,2.131,12.922,2.036,12.602,1.95L12.602,1.95z M13.557,2.235
		c0.205,0.067,0.409,0.138,0.611,0.214C13.966,2.373,13.762,2.302,13.557,2.235L13.557,2.235z"/>
	<path d="M7.299,13.415c-0.04,0.005-0.08,0.011-0.12,0.017C7.218,13.425,7.259,13.42,7.299,13.415L7.299,13.415z M7.179,13.431
		c-0.125,0.019-0.25,0.042-0.373,0.069C6.929,13.474,7.053,13.45,7.179,13.431L7.179,13.431z"/>
	<path d="M9.937,13.713c0.197,0.073,0.391,0.154,0.581,0.249C10.329,13.868,10.134,13.786,9.937,13.713L9.937,13.713z"/>
	<path d="M6.063,13.713c-0.197,0.072-0.391,0.154-0.581,0.249C5.672,13.868,5.866,13.786,6.063,13.713L6.063,13.713z"/>
	<path d="M6.673,13.529c-0.079,0.019-0.158,0.041-0.236,0.064C6.516,13.57,6.594,13.548,6.673,13.529L6.673,13.529z M6.438,13.593
		c-0.082,0.024-0.163,0.05-0.244,0.078C6.275,13.644,6.356,13.617,6.438,13.593L6.438,13.593z"/>
	<path d="M9.327,13.529c0.079,0.019,0.158,0.041,0.236,0.064C9.484,13.57,9.406,13.548,9.327,13.529L9.327,13.529z M9.562,13.593
		c0.082,0.024,0.163,0.051,0.244,0.078C9.725,13.643,9.644,13.617,9.562,13.593L9.562,13.593z"/>
	<path d="M8.701,13.415c0.04,0.005,0.08,0.011,0.12,0.017C8.781,13.425,8.741,13.42,8.701,13.415L8.701,13.415z M8.821,13.431
		c0.125,0.019,0.249,0.043,0.373,0.069C9.071,13.474,8.947,13.45,8.821,13.431L8.821,13.431z"/>
	<path d="M10.748,1.556c0.006,0.001,0.012,0.002,0.018,0.003C10.76,1.557,10.754,1.556,10.748,1.556L10.748,1.556z"/>
	<path d="M9.806,13.671c0.023,0.008,0.047,0.015,0.07,0.022C9.853,13.686,9.83,13.679,9.806,13.671L9.806,13.671z M9.877,13.693
		c0.02,0.006,0.041,0.013,0.061,0.02C9.917,13.706,9.897,13.7,9.877,13.693L9.877,13.693z"/>
	<path d="M14.169,2.448c0.026,0.01,0.053,0.02,0.079,0.031C14.221,2.469,14.195,2.458,14.169,2.448L14.169,2.448z M14.248,2.479
		c0.035,0.014,0.07,0.028,0.106,0.042C14.318,2.507,14.283,2.493,14.248,2.479L14.248,2.479z"/>
	<path d="M8.571,13.401c0.044,0.004,0.087,0.008,0.131,0.014C8.658,13.409,8.614,13.405,8.571,13.401L8.571,13.401z"/>
	<path d="M9.195,13.501c0.023,0.005,0.046,0.01,0.069,0.014C9.241,13.51,9.218,13.506,9.195,13.501L9.195,13.501z M9.264,13.515
		c0.021,0.004,0.042,0.009,0.063,0.014C9.306,13.524,9.285,13.519,9.264,13.515L9.264,13.515z"/>
	<path d="M12.434,1.906c0.034,0.009,0.068,0.018,0.102,0.027C12.502,1.924,12.468,1.915,12.434,1.906L12.434,1.906z M12.536,1.933
		c0.022,0.006,0.044,0.012,0.065,0.018C12.58,1.944,12.558,1.939,12.536,1.933L12.536,1.933z"/>
	<path d="M9.921,2.453c0.229,0.026,0.459,0.057,0.69,0.093c0.504,0.079,1.033,0.189,1.572,0.328l0.159,0.042
		c0.506,0.135,1.003,0.293,1.477,0.469l0.081,0.032l0.094,0.037c0.191,0.073,0.374,0.147,0.55,0.22l-1.319,2.639
		c-1.099-0.449-2.26-0.751-3.469-0.901L9.921,2.453 M8.979,1.369L8.704,6.322c1.714,0.095,3.414,0.514,4.985,1.3l2.212-4.425
		c-0.507-0.253-1.025-0.475-1.548-0.676c-0.062-0.024-0.123-0.05-0.185-0.073c-0.516-0.191-1.039-0.357-1.567-0.498
		c-0.056-0.015-0.112-0.03-0.167-0.044c-0.551-0.142-1.108-0.26-1.668-0.348c-0.006-0.001-0.012-0.002-0.018-0.003
		C10.162,1.464,9.571,1.402,8.979,1.369L8.979,1.369z"/>
	<path d="M9.527,9.537c0.639,0.099,1.256,0.258,1.848,0.477l-1.34,2.679c-0.156-0.051-0.313-0.097-0.473-0.136l-0.153-0.033
		c-0.016-0.003-0.032-0.007-0.047-0.01L9.527,9.537 M8.587,8.435l-0.274,4.938c0.087,0.005,0.172,0.019,0.258,0.028
		c0.044,0.004,0.087,0.008,0.131,0.014c0.166,0.021,0.33,0.05,0.494,0.086c0.044,0.01,0.088,0.017,0.132,0.028
		c0.162,0.04,0.321,0.088,0.48,0.142c0.044,0.015,0.088,0.026,0.131,0.042c0.197,0.073,0.391,0.154,0.581,0.249l2.222-4.445
		C11.432,8.863,10.015,8.514,8.587,8.435L8.587,8.435z"/>
	<path d="M6.805,13.501c-0.023,0.005-0.046,0.01-0.069,0.014C6.759,13.51,6.782,13.506,6.805,13.501L6.805,13.501z M6.736,13.515
		c-0.021,0.004-0.042,0.009-0.063,0.014C6.694,13.524,6.715,13.519,6.736,13.515L6.736,13.515z"/>
	<path d="M7.429,13.401c-0.044,0.004-0.087,0.008-0.131,0.014C7.342,13.409,7.386,13.405,7.429,13.401L7.429,13.401z"/>
	<path d="M6.194,13.671c-0.023,0.008-0.047,0.015-0.07,0.022C6.147,13.686,6.17,13.679,6.194,13.671L6.194,13.671z M6.123,13.693
		c-0.02,0.006-0.041,0.013-0.061,0.02C6.083,13.706,6.103,13.7,6.123,13.693L6.123,13.693z"/>
	<path d="M5.252,1.556C5.246,1.556,5.24,1.557,5.234,1.558C5.24,1.557,5.246,1.556,5.252,1.556L5.252,1.556z"/>
	<path d="M3.566,1.906C3.532,1.915,3.498,1.924,3.464,1.933C3.498,1.924,3.532,1.915,3.566,1.906L3.566,1.906z M3.464,1.933
		C3.442,1.939,3.42,1.944,3.398,1.95C3.42,1.944,3.442,1.939,3.464,1.933L3.464,1.933z"/>
	<path d="M1.831,2.448c-0.026,0.01-0.053,0.02-0.079,0.031C1.779,2.469,1.805,2.458,1.831,2.448L1.831,2.448z M1.752,2.479
		c-0.035,0.014-0.07,0.028-0.106,0.042C1.682,2.507,1.717,2.493,1.752,2.479L1.752,2.479z"/>
	<path d="M6.079,2.453l0.164,2.96c-1.209,0.151-2.37,0.452-3.469,0.901L1.456,3.675c0.176-0.074,0.359-0.147,0.55-0.221l0.093-0.037
		l0.08-0.031c0.475-0.176,0.972-0.334,1.479-0.47l0.157-0.042c0.541-0.139,1.07-0.249,1.591-0.331
		C5.629,2.509,5.854,2.478,6.079,2.453 M7.021,1.369C6.429,1.402,5.838,1.464,5.252,1.556C5.246,1.556,5.24,1.557,5.234,1.558
		c-0.56,0.088-1.117,0.206-1.668,0.348C3.51,1.92,3.454,1.935,3.398,1.95C2.87,2.092,2.347,2.257,1.831,2.448
		C1.769,2.471,1.708,2.497,1.647,2.521C1.123,2.722,0.605,2.943,0.098,3.197l2.212,4.425c1.571-0.786,3.271-1.205,4.985-1.3
		L7.021,1.369L7.021,1.369z"/>
	<path d="M6.473,9.537l0.165,2.977c-0.027,0.006-0.054,0.011-0.082,0.018l-0.12,0.026c-0.154,0.038-0.306,0.082-0.471,0.135
		l-1.339-2.679C5.217,9.795,5.834,9.636,6.473,9.537 M7.413,8.435C5.985,8.514,4.568,8.863,3.259,9.518l2.222,4.445
		c0.19-0.095,0.385-0.177,0.581-0.249c0.043-0.016,0.088-0.028,0.131-0.042c0.158-0.054,0.318-0.103,0.48-0.142
		c0.044-0.011,0.088-0.018,0.132-0.028c0.163-0.036,0.328-0.065,0.494-0.086c0.044-0.005,0.087-0.01,0.131-0.014
		c0.086-0.009,0.172-0.023,0.258-0.028L7.413,8.435L7.413,8.435z"/>
</g>
</svg>
