<svg xmlns="http://www.w3.org/2000/svg" viewBox="0 0 32 32"><title>icons</title><rect x="7.13184" y="3.60059" width="14.81641" height="10.72168" rx="0.25" style="opacity:0.2"/><path d="M21.44857,4.10076v9.72176H7.6322V4.10076H21.44857m.25-1H7.3822a.75.75,0,0,0-.75.75V14.07252a.75.75,0,0,0,.75.75H21.69857a.75.75,0,0,0,.75-.75V3.85076a.75.75,0,0,0-.75-.75Z"/><rect x="14.04492" y="17.67773" width="7.90332" height="10.72168" rx="0.25" style="opacity:0.2"/><path d="M21.44857,18.17748v9.72175H14.54486V18.17748h6.90371m.25-1H14.29486a.75.75,0,0,0-.75.75V28.14923a.75.75,0,0,0,.75.75h7.40371a.75.75,0,0,0,.75-.75V17.92748a.75.75,0,0,0-.75-.75Z"/><line x1="25.3678" y1="29.89924" x2="25.3678" y2="2.10076" style="fill:none;stroke:#000;stroke-linecap:round;stroke-miterlimit:10;stroke-width:1.5px"/></svg>