<svg xmlns="http://www.w3.org/2000/svg" viewBox="0 0 32 32"><title>icons</title><path d="M18.14031,21.47351a5.9941,5.9941,0,0,1-4.3749,1.39291,6.519,6.519,0,0,1-4.42123-2.26,6.97593,6.97593,0,0,1-1.67449-5.06919,7.54357,7.54357,0,0,1,2.53549-5.121,8.042,8.042,0,0,1,5.75455-1.97986,8.471,8.471,0,0,1,5.82275,2.78418,9.00877,9.00877,0,0,1,2.32784,6.41538,9.48048,9.48048,0,0,1-2.99106,6.54438l-.75978.5697a9.97671,9.97671,0,0,1-7.29576,2.011A10.49989,10.49989,0,0,1,6.122,22.90369a10.9547,10.9547,0,0,1-2.36269-7.97382A11.52092,11.52092,0,0,1,7.83119,7.25011a12.01876,12.01876,0,0,1,8.64128-2.73768,12.44422,12.44422,0,0,1,8.41818,4.25876,12.98352,12.98352,0,0,1,3.1548,9.28244,13.45123,13.45123,0,0,1-4.40286,9.175" style="fill:none;stroke:#000;stroke-linecap:round;stroke-miterlimit:10"/><path d="M15.92112,18.19707a2.29374,2.29374,0,0,1-3.35479.112,3.31063,3.31063,0,0,1,.01284-4.72685,4.05155,4.05155,0,0,1,2.86781-1.222,4.4908,4.4908,0,0,1,3.22734,1.30961,5.02647,5.02647,0,0,1,1.50086,3.5483,5.505,5.505,0,0,1-1.57924,3.91375l-.45563.34164" style="fill:none;stroke:#000;stroke-linecap:round;stroke-miterlimit:10"/></svg>