<svg xmlns="http://www.w3.org/2000/svg" viewBox="0 0 32 32">
    <title>icons</title>
    <g style="opacity:0.8">
        <path
            d="M23.39725,12.24558H22.572a5.61129,5.61129,0,0,0-.3897-1.02258,9.19845,9.19845,0,0,0-.62889-1.11826,5.65791,5.65791,0,0,0-.78537-.96278,1.56245,1.56245,0,0,0-.82126-.47242c-.24817-.03189-.55913-.05581-.93487-.07176s-.72358-.02392-1.04251-.02392h-.69567V22.14844a1.57154,1.57154,0,0,0,.16744.72358,1.11541,1.11541,0,0,0,.586.5083,7.08655,7.08655,0,0,0,.903.22724,6.63611,6.63611,0,0,0,1.07041.15548l.006,1.01771H11.99341l-.006-1.01771q.33488-.02393,1.02257-.09568a3.93776,3.93776,0,0,0,.95082-.1794,1.16124,1.16124,0,0,0,.58006-.4485,1.45108,1.45108,0,0,0,.18538-.78338V8.57386h-.69368q-.37075,0-.92092.01794t-1.05247.07774a1.45747,1.45747,0,0,0-.81926.47242,6.28939,6.28939,0,0,0-.78338.96278,8.12947,8.12947,0,0,0-.63388,1.14218,6.93109,6.93109,0,0,0-.38272.99866h-.8372V7.21925h14.7945Z" />
    </g>
    <line x1="25.96511" y1="16" x2="6.03489" y2="16"
        style="fill:none;stroke:#000;stroke-linecap:round;stroke-miterlimit:10;stroke-width:1.5px" />
</svg>