<svg width="32" height="32" viewBox="0 0 18 18" fill="none" xmlns="http://www.w3.org/2000/svg">
    <path
        transform="translate(1.5, 1.5) scale(0.75)"
        d="M0 0H1.125V1.125H0V0ZM3.375 0H4.5V1.125H3.375V0ZM6.75 0H7.875V1.125H6.75V0ZM10.125 0H11.25V1.125H10.125V0ZM13.5 0H14.625V1.125H13.5V0ZM18 0V1.125H16.875V0H18ZM0 16.875H1.125V18H0V16.875ZM3.375 16.875H4.5V18H3.375V16.875ZM6.75 16.875H7.875V18H6.75V16.875ZM10.125 16.875H11.25V18H10.125V16.875ZM13.5 16.875H14.625V18H13.5V16.875ZM0 13.5H1.125V14.625H0V13.5ZM0 10.125H1.125V11.25H0V10.125ZM0 6.75H1.125V7.875H0V6.75ZM0 3.375H1.125V4.5H0V3.375ZM16.875 13.5H18V14.625H16.875V13.5ZM16.875 10.125H18V11.25H16.875V10.125ZM16.875 6.75H18V7.875H16.875V6.75ZM16.875 3.375H18V4.5H16.875V3.375ZM16.875 16.875H18V18H16.875V16.875Z"
        fill="#000000" />
</svg>