<svg xmlns="http://www.w3.org/2000/svg" viewBox="0 0 32 32"><title>icons</title><path d="M28.13745,26.63035l-.472.18948-.47554.16442-.47966.138-.48212.10965-.48449.08-.48553.04917-.486.01765-.48587-.01412-.48555-.04572-.24245-.03453.74532-4.70829.09515.01356.18123.01712.17478.0051.17552-.0064.18281-.01857.19536-.03234.21118-.04813.22908-.066.24679-.08542.2643-.10619.13847-.06118,1.97393,4.339Z" style="fill-opacity:0.2"/><path d="M22.60071,27.07428l-.48092-.1477-.47916-.173-.47732-.196-.47573-.21661-.4745-.23468-.47383-.2502-.47388-.26321-.47489-.27382-.477-.282-.23965-.14337,2.4518-4.088.2298.13748.44212.26144.41923.24175.39642.22024.37332.19719.3495.17292.32477.148.29924.123.27327.0988.24761.07617.11463.0303L22.8418,27.138Z" style="fill-opacity:0.2"/><path d="M17.11278,24.31667l-.49442-.29234-.50273-.28985-.51259-.2847-.52409-.2767-.537-.26556-.5512-.25094-.56637-.23256-.5821-.21016-.59758-.18347L11.94038,21.95l1.15375-4.62518.43077.11378.83089.255.788.28439.74446.30561.70214.31958.662.3273.6246.32972.59005.32767.55839.32192.52929.31293.25443.15221L17.35736,24.463Z" style="fill-opacity:0.2"/><path d="M10.70356,21.71706l-.63771-.06-.64141-.01863-.64117.02328-.63689.06447L7.51733,21.83l-.61759.14041-.605.174-.58993.20393-.57582.23111-.28293.125-1.97393-4.339.37924-.16753.7835-.31439.81868-.28293.85554-.246.88853-.20193.91817-.15151.93961-.09507.95161-.03454.95249.02766.942.08863.46341.066-.74532,4.70829Z" style="fill-opacity:0.2"/><path d="M29.12782,28.18922C18.244,31.9887,14.91642,19.42035,5.52358,24.35432" style="fill:none;stroke:#000;stroke-linecap:round;stroke-miterlimit:10"/><rect x="9.02457" y="10.41015" width="14.64709" height="3.86026" transform="translate(-3.93764 15.17425) rotate(-45)"/><polygon points="6.794 21.894 11.571 19.847 8.842 17.117 6.794 21.894"/><path d="M23.70248,3.317l1.66895,1.669a.75.75,0,0,1,0,1.06066L23.85455,7.56346,21.12494,4.83384,22.64182,3.317A.75.75,0,0,1,23.70248,3.317Z"/></svg>