<?xml version="1.0" encoding="utf-8"?>
<!-- Generator: Adobe Illustrator 25.1.0, SVG Export Plug-In . SVG Version: 6.00 Build 0)  -->
<svg version="1.1" id="Layer_1" xmlns="http://www.w3.org/2000/svg" xmlns:xlink="http://www.w3.org/1999/xlink" x="0px" y="0px"
	 width="16px" height="16px" viewBox="0 0 16 16" enable-background="new 0 0 16 16" xml:space="preserve">
<path d="M8,2C5,0,0,0,0,0v12c0,0,5,0,8,2s8,2,8,2V4C16,4,11,4,8,2z M4.349,8.037l0.289-2.893c0.995,0.269,1.991,0.645,2.807,1.189
	c0.006,0.004,0.014,0.008,0.02,0.012L6.72,8.809C5.956,8.471,5.141,8.222,4.349,8.037z M6.426,9.78l-0.641,2.118
	c-0.6-0.19-1.197-0.339-1.777-0.456l0.24-2.401C4.988,9.22,5.734,9.462,6.426,9.78z M8.355,6.858c0.84,0.427,1.75,0.735,2.645,0.968
	v2.97C9.946,10.503,8.886,10.09,8,9.5C7.879,9.42,7.751,9.348,7.624,9.273L8.355,6.858z M8.649,5.884l0.638-2.11
	C9.852,3.999,10.428,4.177,11,4.327v2.47C10.192,6.572,9.383,6.276,8.649,5.884z M8.367,3.365L7.764,5.358
	C6.852,4.798,5.788,4.404,4.739,4.131l0.24-2.397C5.858,1.996,6.723,2.35,7.445,2.832C7.738,3.027,8.048,3.204,8.367,3.365z
	 M1,1.046C1.753,1.1,2.849,1.221,3.999,1.48L3.757,3.908C2.679,3.693,1.693,3.591,1,3.543V1.046z M1,4.546
	c0.677,0.049,1.635,0.156,2.656,0.365L3.364,7.833C2.44,7.668,1.608,7.585,1,7.543V4.546z M1,8.546
	c0.59,0.043,1.392,0.127,2.264,0.285l-0.243,2.434C2.236,11.144,1.527,11.073,1,11.039V8.546z M6.728,12.232l0.596-1.97
	c0.039,0.025,0.083,0.044,0.121,0.07c1.06,0.706,2.324,1.173,3.555,1.495v2.432c-0.872-0.261-1.728-0.613-2.445-1.091
	C7.993,12.793,7.37,12.489,6.728,12.232z M15,14.954c-0.753-0.054-1.85-0.175-3-0.435v-2.46c1.178,0.239,2.261,0.354,3,0.402V14.954
	z M15,11.457c-0.745-0.051-1.828-0.164-3-0.414V8.06c1.178,0.239,2.261,0.354,3,0.402V11.457z M12,7.042V4.56
	c1.178,0.239,2.261,0.354,3,0.402v2.496C14.255,7.406,13.172,7.292,12,7.042z"/>
</svg>
