<svg xmlns="http://www.w3.org/2000/svg" viewBox="0 0 32 32"><title>icons</title><path d="M22.08008,12.9141h-.6783a4.61165,4.61165,0,0,0-.3203-.8405,7.561,7.561,0,0,0-.51691-.91914,4.65056,4.65056,0,0,0-.64553-.79134,1.28421,1.28421,0,0,0-.675-.3883c-.204-.02622-.45957-.04588-.76841-.059s-.59473-.01966-.85688-.01966h-.5718V21.05364a1.29177,1.29177,0,0,0,.13763.59474.91687.91687,0,0,0,.48169.41779,5.82485,5.82485,0,0,0,.74219.18677,5.45483,5.45483,0,0,0,.87982.1278l.00491.83649H12.70683l-.00492-.83649q.27525-.01966.8405-.07865a3.23673,3.23673,0,0,0,.78151-.14745.95456.95456,0,0,0,.47678-.36864,1.19272,1.19272,0,0,0,.15237-.64389V9.89618h-.57016q-.30476,0-.75694.01474t-.86507.0639a1.19788,1.19788,0,0,0-.67338.3883,5.16855,5.16855,0,0,0-.64389.79134,6.68125,6.68125,0,0,0-.521.9388,5.69628,5.69628,0,0,0-.31457.82084H9.91992V8.78277H22.08008Z"/><rect x="5.15124" y="5.14142" width="21.69752" height="21.69752" style="fill:none;stroke:#000;stroke-linejoin:round"/></svg>