<?xml version="1.0" encoding="utf-8"?>
<!-- Generator: Adobe Illustrator 25.1.0, SVG Export Plug-In . SVG Version: 6.00 Build 0)  -->
<svg version="1.1" id="Layer_1" xmlns="http://www.w3.org/2000/svg" xmlns:xlink="http://www.w3.org/1999/xlink" x="0px" y="0px"
	 width="16px" height="16px" viewBox="0 0 16 16" enable-background="new 0 0 16 16" xml:space="preserve">
<path d="M8,0C3.582,0,0,3.582,0,8s3.582,8,8,8s8-3.582,8-8S12.418,0,8,0z M12.518,13.337l-0.591-0.809
	c-0.252,0.218-0.522,0.414-0.808,0.589l0.59,0.807C10.633,14.602,9.363,15,8,15c-1.363,0-2.633-0.398-3.71-1.075l0.59-0.807
	c-0.286-0.175-0.556-0.371-0.808-0.589l-0.591,0.809C1.966,12.052,1,10.138,1,8c0-0.59,0.081-1.161,0.22-1.709l0.95,0.313
	c0.078-0.328,0.178-0.648,0.308-0.952L1.528,5.34C2.517,2.943,4.799,1.218,7.5,1.025v1C7.665,2.012,7.831,2,8,2
	s0.335,0.012,0.5,0.025v-1c2.701,0.192,4.983,1.918,5.972,4.315l-0.949,0.313c0.13,0.305,0.229,0.624,0.307,0.952l0.95-0.313
	C14.919,6.839,15,7.41,15,8C15,10.138,14.034,12.052,12.518,13.337z M5.045,7.553l-1.92-0.633c0.073-0.33,0.18-0.647,0.315-0.95
	l1.92,0.633C5.205,6.895,5.096,7.213,5.045,7.553z M10.147,10.091l1.18,1.615c-0.248,0.223-0.518,0.419-0.808,0.589l-1.184-1.621
	C9.636,10.523,9.913,10.33,10.147,10.091z M5.853,10.091c0.233,0.24,0.51,0.432,0.812,0.583l-1.184,1.621
	c-0.29-0.171-0.559-0.366-0.808-0.589L5.853,10.091z M8,5C7.829,5,7.663,5.023,7.5,5.05v-2C7.667,3.034,7.829,3,8,3
	s0.333,0.034,0.5,0.051v2C8.337,5.023,8.171,5,8,5z M9.54,9.26c-0.214,0.26-0.486,0.469-0.804,0.595L8,8.848L7.264,9.855
	C6.946,9.729,6.674,9.521,6.46,9.26l0.731-1L6.013,7.872C6.036,7.523,6.142,7.198,6.322,6.92L7.5,7.308V6.071
	C7.661,6.029,7.826,6,8,6s0.339,0.029,0.5,0.071v1.237L9.678,6.92c0.179,0.278,0.286,0.603,0.309,0.952L8.809,8.26L9.54,9.26z
	 M12.56,5.97c0.135,0.302,0.242,0.619,0.315,0.949l-1.92,0.633c-0.051-0.34-0.16-0.657-0.315-0.95L12.56,5.97z"/>
</svg>
