<?xml version="1.0" encoding="utf-8"?>
<!-- Generator: Adobe Illustrator 25.1.0, SVG Export Plug-In . SVG Version: 6.00 Build 0)  -->
<svg version="1.1" id="Layer_1" xmlns="http://www.w3.org/2000/svg" xmlns:xlink="http://www.w3.org/1999/xlink" x="0px" y="0px"
	 width="16px" height="16px" viewBox="0 0 16 16" enable-background="new 0 0 16 16" xml:space="preserve">
<path d="M3,6c0.276,0,0.535,0.052,0.777,0.156C4.02,6.26,4.231,6.403,4.414,6.585c0.182,0.183,0.325,0.395,0.43,0.637
	C4.948,7.464,5,7.724,5,8c0,0.276-0.052,0.535-0.156,0.777C4.739,9.02,4.596,9.231,4.414,9.414C4.231,9.597,4.02,9.739,3.777,9.844
	S3.276,10,3,10c-0.276,0-0.535-0.052-0.777-0.156s-0.455-0.247-0.637-0.43C1.403,9.231,1.26,9.02,1.156,8.777
	C1.052,8.535,1,8.276,1,8c0-0.276,0.052-0.535,0.156-0.777C1.26,6.98,1.403,6.768,1.586,6.585C1.768,6.403,1.98,6.26,2.223,6.156
	C2.465,6.052,2.724,6,3,6z M3,9.125c0.156,0,0.302-0.03,0.438-0.09c0.135-0.06,0.254-0.141,0.355-0.243s0.182-0.22,0.242-0.355
	C4.095,8.302,4.125,8.156,4.125,8s-0.03-0.302-0.09-0.438c-0.06-0.135-0.141-0.254-0.242-0.355s-0.22-0.182-0.355-0.242
	C3.302,6.905,3.156,6.875,3,6.875s-0.302,0.03-0.438,0.09c-0.136,0.06-0.254,0.141-0.355,0.242s-0.183,0.22-0.242,0.355
	C1.905,7.698,1.875,7.843,1.875,8s0.03,0.302,0.09,0.438c0.06,0.136,0.141,0.254,0.242,0.355s0.22,0.183,0.355,0.243
	C2.698,9.095,2.844,9.125,3,9.125z M7,2h9v1H7V2z M7,8V7h9v1H7z M7,13v-1h9v1H7z M4,2v2H2V2H4 M5,1H1v4h4V1L5,1z M3.8,12L3,13.441
	L2.2,12H3.8 M5.5,11h-5L3,15.5L5.5,11L5.5,11z"/>
</svg>
