<svg xmlns="http://www.w3.org/2000/svg" viewBox="0 0 32 32">
    <title>icons</title>
    <polyline points="5.835 12.899 5.835 5.835 12.899 5.835"
        style="fill:none;stroke:#000;stroke-linecap:round;stroke-linejoin:round;stroke-width:1.5px;fill-rule:evenodd" />
    <polyline points="19.101 5.835 26.165 5.835 26.165 12.899"
        style="fill:none;stroke:#000;stroke-linecap:round;stroke-linejoin:round;stroke-width:1.5px;fill-rule:evenodd" />
    <polyline points="26.165 19.101 26.165 26.165 19.101 26.165"
        style="fill:none;stroke:#000;stroke-linecap:round;stroke-linejoin:round;stroke-width:1.5px;fill-rule:evenodd" />
    <polyline points="12.899 26.165 5.835 26.165 5.835 19.101"
        style="fill:none;stroke:#000;stroke-linecap:round;stroke-linejoin:round;stroke-width:1.5px;fill-rule:evenodd" />
    <g style="opacity:0.8">
        <polygon points="22.2 12.273 16.01 9.032 9.82 12.273 16.01 15.513 22.2 12.273" />
        <polygon points="16.41 22.621 22.6 19.381 22.6 12.9 16.41 16.141 16.41 22.621" />
        <polygon points="16.41 22.621 22.6 19.381 16.41 22.621 16.41 22.621" />
        <polygon points="9.42 12.9 9.42 19.381 15.61 22.621 15.61 16.141 9.42 12.9" />
        <polygon points="15.61 22.621 15.61 22.621 9.42 19.381 15.61 22.621" />
    </g>
</svg>