<svg version="1.1" id="Layer_1" xmlns="http://www.w3.org/2000/svg" xmlns:xlink="http://www.w3.org/1999/xlink" x="0px"
    y="0px" viewBox="0 0 24 24" enable-background="new 0 0 24 24" xml:space="preserve" width="24" height="24">
    <path fill="none" d="M0,0h24v24H0V0z" />
    <path transform="translate(3, 3) scale(0.7)"
        d="M22.75,24c-0.32,0-0.64-0.122-0.884-0.366L12,13.768l-9.866,9.866c-0.488,0.488-1.279,0.488-1.768,0&#xA; s-0.488-1.279,0-1.768L10.232,12L0.366,2.134c-0.488-0.488-0.488-1.279,0-1.768s1.279-0.488,1.768,0L12,10.232l9.866-9.866&#xA; c0.488-0.488,1.279-0.488,1.768,0s0.488,1.279,0,1.768L13.768,12l9.866,9.866c0.488,0.488,0.488,1.279,0,1.768&#xA; C23.39,23.878,23.07,24,22.75,24z" />
</svg>