<svg xmlns="http://www.w3.org/2000/svg" viewBox="0 0 32 32">
    <title>icons</title>
    <g style="opacity:0.8">
        <path
            d="M21.55287,12.24558h-.82524a5.61115,5.61115,0,0,0-.38969-1.02258,9.1985,9.1985,0,0,0-.6289-1.11826,5.65744,5.65744,0,0,0-.78537-.96278,1.56247,1.56247,0,0,0-.82125-.47242c-.24817-.03189-.55913-.05581-.93487-.07176S16.444,8.57386,16.125,8.57386h-.69567V22.14844a1.57167,1.57167,0,0,0,.16744.72358,1.11545,1.11545,0,0,0,.586.5083,7.08655,7.08655,0,0,0,.903.22724,6.63621,6.63621,0,0,0,1.07042.15548l.006,1.01771H10.149l-.006-1.01771q.33488-.02393,1.02258-.09568a3.938,3.938,0,0,0,.95082-.1794,1.16128,1.16128,0,0,0,.58006-.4485,1.45117,1.45117,0,0,0,.18538-.78338V8.57386h-.69368q-.37077,0-.92092.01794t-1.05248.07774a1.45747,1.45747,0,0,0-.81926.47242,6.29,6.29,0,0,0-.78338.96278,8.12947,8.12947,0,0,0-.63388,1.14218,6.93229,6.93229,0,0,0-.38272.99866H6.75838V7.21925H21.55287Z" />
    </g>
    <line x1="25.24162" y1="6.03489" x2="25.24162" y2="25.96511"
        style="fill:none;stroke:#000;stroke-linecap:round;stroke-miterlimit:10;stroke-width:1.5px" />
</svg>