<svg width="32" height="32" viewBox="0 0 12 14" fill="none" xmlns="http://www.w3.org/2000/svg">
<path
    transform="translate(1, 1.5) scale(0.75)"
    d="M6.4375 0.0273438C6.875 0.0273438 7.29655 0.0843099 7.70215 0.198242C8.10775 0.312174 8.48828 0.473958 8.84375 0.683594C9.19922 0.893229 9.52279 1.14388 9.81445 1.43555C10.1061 1.72721 10.3568 2.05078 10.5664 2.40625C10.776 2.76172 10.9378 3.14225 11.0518 3.54785C11.1657 3.95345 11.2227 4.375 11.2227 4.8125C11.2227 5.43685 11.1019 6.04069 10.8604 6.62402C10.6234 7.2028 10.2839 7.71322 9.8418 8.15527L4.12012 13.8701L3.50488 13.2549L9.21973 7.5332C9.57975 7.17318 9.85775 6.75846 10.0537 6.28906C10.2497 5.8151 10.3477 5.32292 10.3477 4.8125C10.3477 4.2793 10.2428 3.77572 10.0332 3.30176C9.82812 2.8278 9.54785 2.41309 9.19238 2.05762C8.83691 1.70215 8.4222 1.42188 7.94824 1.2168C7.47428 1.00716 6.9707 0.902344 6.4375 0.902344C5.94531 0.902344 5.51009 0.977539 5.13184 1.12793C4.75814 1.27376 4.41178 1.46973 4.09277 1.71582C3.77376 1.95736 3.46615 2.23307 3.16992 2.54297C2.87826 2.85286 2.57064 3.17188 2.24707 3.5H5.125V4.375H0.75V0H1.625V2.87793C1.87565 2.62272 2.11491 2.37663 2.34277 2.13965C2.5752 1.89811 2.80534 1.67253 3.0332 1.46289C3.26562 1.2487 3.50033 1.05501 3.7373 0.881836C3.97884 0.704102 4.23405 0.553711 4.50293 0.430664C4.77637 0.30306 5.07031 0.205078 5.38477 0.136719C5.70378 0.0638021 6.05469 0.0273438 6.4375 0.0273438Z" fill="black"/>
</svg>
