<?xml version="1.0" encoding="utf-8"?>
<!-- Generator: Adobe Illustrator 25.1.0, SVG Export Plug-In . SVG Version: 6.00 Build 0)  -->
<svg version="1.1" id="Layer_1" xmlns="http://www.w3.org/2000/svg" xmlns:xlink="http://www.w3.org/1999/xlink" x="0px" y="0px"
	 width="16px" height="16px" viewBox="0 0 16 16" enable-background="new 0 0 16 16" xml:space="preserve">
<g>
	<g>
		<path d="M8,2.335c2.245,0,4.488,0.46,6.546,1.336l-1.321,2.642C11.576,5.636,9.788,5.281,8,5.281S4.424,5.636,2.775,6.313
			L1.454,3.671C3.512,2.795,5.755,2.335,8,2.335 M8,1.335c-2.71,0-5.42,0.62-7.902,1.861l2.212,4.425
			C4.097,6.728,6.049,6.281,8,6.281s3.903,0.447,5.689,1.34l2.212-4.425C13.42,1.956,10.71,1.335,8,1.335L8,1.335z"/>
	</g>
	<g>
		<path d="M8,9.401c1.151,0,2.301,0.21,3.376,0.611l-1.338,2.677C9.38,12.478,8.689,12.368,8,12.368s-1.38,0.11-2.037,0.322
			l-1.338-2.677C5.699,9.611,6.849,9.401,8,9.401 M8,8.401c-1.626,0-3.252,0.372-4.741,1.117l2.222,4.445
			C6.275,13.566,7.137,13.368,8,13.368s1.725,0.198,2.519,0.595l2.222-4.445C11.252,8.774,9.626,8.401,8,8.401L8,8.401z"/>
	</g>
</g>
</svg>
