<svg version="1.1" id="Layer_1" xmlns="http://www.w3.org/2000/svg" xmlns:xlink="http://www.w3.org/1999/xlink" x="0px" y="0px"
	 width="16px" height="16px" viewBox="0 0 16 16" enable-background="new 0 0 16 16" xml:space="preserve">
<path d="M9.5,1.5C5.916,1.5,3,4.416,3,8c0,2.895,2.355,5.25,5.25,5.25c2.895,0,5.25-2.355,5.25-5.25c0-2.206-1.794-4-4-4
	c-2.206,0-4,1.794-4,4c0,1.517,1.233,2.75,2.75,2.75S11,9.517,11,8c0-0.827-0.673-1.5-1.5-1.5S8,7.173,8,8
	c0,0.276,0.224,0.5,0.5,0.5S9,8.276,9,8c0-0.276,0.225-0.5,0.5-0.5S10,7.724,10,8c0,0.965-0.785,1.75-1.75,1.75S6.5,8.965,6.5,8
	c0-1.654,1.346-3,3-3s3,1.346,3,3c0,2.344-1.906,4.25-4.25,4.25C5.907,12.25,4,10.344,4,8c0-3.033,2.467-5.5,5.5-5.5
	C12.532,2.5,15,4.967,15,8c0,3.794-3.091,7-6.75,7C4.456,15,1,11.663,1,8c0-2.615,1.282-5.069,3.43-6.567
	c0.227-0.158,0.282-0.47,0.124-0.696C4.397,0.511,4.086,0.456,3.858,0.613C1.442,2.297,0,5.059,0,8c0,4.187,3.932,8,8.25,8
	C12.451,16,16,12.337,16,8C16,4.416,13.084,1.5,9.5,1.5z"/>
</svg>
