<svg xmlns="http://www.w3.org/2000/svg" viewBox="0 0 32 32"><title>icons</title><rect x="5.85449" y="5.85449" width="20.29102" height="8.4707" rx="0.25" style="opacity:0.2"/><path d="M25.6459,6.3541v7.47154H6.3541V6.3541H25.6459m.25-1H6.1041a.75.75,0,0,0-.75.75v7.97154a.75.75,0,0,0,.75.75H25.8959a.75.75,0,0,0,.75-.75V6.1041a.75.75,0,0,0-.75-.75Z"/><rect x="5.85449" y="17.6748" width="20.29102" height="8.4707" rx="0.25" style="opacity:0.2"/><path d="M25.6459,18.17436V25.6459H6.3541V18.17436H25.6459m.25-1H6.1041a.75.75,0,0,0-.75.75V25.8959a.75.75,0,0,0,.75.75H25.8959a.75.75,0,0,0,.75-.75V17.92436a.75.75,0,0,0-.75-.75Z"/></svg>