<svg xmlns="http://www.w3.org/2000/svg" viewBox="0 0 32 32"><title>icons</title><path d="M20.29828,21.96776c-1.69855.079-3.3971.12105-5.09564.15959-.85552.01513-1.6828.05668-2.56858.04334a4.45869,4.45869,0,0,1-2.68869-.73906,1.22241,1.22241,0,0,1-.42476-.83629,1.47207,1.47207,0,0,1,.2064-.85228,3.88714,3.88714,0,0,1,.94657-1.082,14.70081,14.70081,0,0,1,2.19962-1.4337L17.29391,14.693l2.21065-1.25539a6.63545,6.63545,0,0,0,1.85274-1.43489c.22079-.28821.28835-.535.19881-.679a1.40188,1.40188,0,0,0-.79927-.46945,9.34212,9.34212,0,0,0-2.4076-.29642c-3.39709-.07329-6.79417-.17462-10.19127-.36259,3.3971-.188,6.79418-.2893,10.19127-.3626a9.77265,9.77265,0,0,1,2.64536.20774,2.14951,2.14951,0,0,1,1.318.83287,1.20963,1.20963,0,0,1,.13417.94071,1.23455,1.23455,0,0,1-.14918.39753,1.48719,1.48719,0,0,1-.20378.33067,7.00949,7.00949,0,0,1-2.10135,1.72682l-2.20951,1.27967-4.42775,2.522a15.97553,15.97553,0,0,0-2.08465,1.3109,3.05814,3.05814,0,0,0-.75063.79438c-.15739.29951-.15909.43324.01969.61859a4.16871,4.16871,0,0,0,2.13652.606c.8119.053,1.68367.055,2.52655.0813,1.69854.03855,3.39709.08065,5.09564.15959a.16328.16328,0,0,1,0,.3262Z"/><polygon points="19.506 20.643 23.842 21.805 19.506 22.967 19.506 20.643"/><circle cx="5.84202" cy="10.19534" r="2.31596" style="fill-opacity:0.2;stroke:#000;stroke-linecap:round;stroke-miterlimit:10"/><circle cx="26.15798" cy="21.80466" r="2.31596" style="fill-opacity:0.2;stroke:#000;stroke-linecap:round;stroke-miterlimit:10"/></svg>