<svg width="12" height="14" viewBox="0 0 12 14" fill="none" xmlns="http://www.w3.org/2000/svg">
<path d="M6.875 3.5H9.75293C9.42936 3.17188 9.11947 2.85286 8.82324 2.54297C8.53158 2.23307 8.22624 1.95736 7.90723 1.71582C7.58822 1.46973 7.23958 1.27376 6.86133 1.12793C6.48763 0.977539 6.05469 0.902344 5.5625 0.902344C5.0293 0.902344 4.52572 1.00716 4.05176 1.2168C3.5778 1.42188 3.16309 1.70215 2.80762 2.05762C2.45215 2.41309 2.1696 2.8278 1.95996 3.30176C1.75488 3.77572 1.65234 4.2793 1.65234 4.8125C1.65234 5.32292 1.75033 5.8151 1.94629 6.28906C2.14225 6.75846 2.42025 7.17318 2.78027 7.5332L8.49512 13.2549L7.87988 13.8701L2.1582 8.15527C1.71615 7.71322 1.37435 7.2028 1.13281 6.62402C0.895833 6.04069 0.777344 5.43685 0.777344 4.8125C0.777344 4.375 0.83431 3.95345 0.948242 3.54785C1.06217 3.14225 1.22396 2.76172 1.43359 2.40625C1.64323 2.05078 1.89388 1.72721 2.18555 1.43555C2.47721 1.14388 2.80078 0.893229 3.15625 0.683594C3.51172 0.473958 3.89225 0.312174 4.29785 0.198242C4.70345 0.0843099 5.125 0.0273438 5.5625 0.0273438C5.94531 0.0273438 6.29395 0.0638021 6.6084 0.136719C6.92741 0.205078 7.22135 0.30306 7.49023 0.430664C7.76367 0.553711 8.01888 0.704102 8.25586 0.881836C8.4974 1.05501 8.7321 1.2487 8.95996 1.46289C9.19238 1.67253 9.42253 1.89811 9.65039 2.13965C9.87826 2.37663 10.1198 2.62272 10.375 2.87793V0H11.25V4.375H6.875V3.5Z" fill="black"/>
</svg>
