<svg xmlns="http://www.w3.org/2000/svg" viewBox="0 0 2048 2048" width="2048" height="2048">
  <path d="M1984 1792q26 0 45 18t19 46q0 24-17 44-30 35-69 62t-83 47-91 29-92 10q-99 0-183-38t-152-110q-49-51-109-79t-132-29q-70 0-131 28t-110 80l-9 9q-9 9-23 22t-30 30-30 30-25 25-13 13q-19 19-45 19t-45-19-19-45q0-26 19-45 54-54 102-104t100-88 114-60 145-23q99 0 183 38t152 110q49 51 109 79t132 29q76 0 132-28t109-80q11-10 21-15t26-5zM1235 290q14 8 23 23t9 32q0 8-2 15t-5 14L553 1789q-9 19-28 28l-173 87q-32 16-69 16h-9q-4 0-10-1l-47 94q-8 16-23 25t-34 10q-26 0-45-19t-19-45q0-12 7-30t16-37 20-37 15-28q-26-40-26-87v-165q0-16 7-29L711 419l-65-32-237 474q-8 16-23 25t-34 10q-26 0-45-19t-19-45q0-13 7-29l239-478q16-32 43-50t63-19q35 0 66 17t62 32l71-142q8-17 23-26t34-9q13 0 22 4 12-24 23-47t26-43 36-30 53-12q32 0 61 15l94 47q32 16 50 42t19 64q0 34-15 63t-30 59zm-202-101l87 43 29-58-87-43-29 58zm84 185l-192-96-669 1337v150q0 11 8 19t19 8q4 0 16-5t29-13 35-17 36-19 30-16 19-10l669-1338z" />
</svg>