<svg width="32" height="32" viewBox="0 0 18 18" fill="none" xmlns="http://www.w3.org/2000/svg">
<path d="M15.75 13.5H2.25V3.375H15.75V13.5ZM3.375 4.5V8.77148L6.46875 5.67773L10.4062 9.60645L12.0938 7.92773L14.625 10.4502V4.5H3.375ZM3.375 12.375H11.5752L6.46875 7.26855L3.375 10.3535V12.375ZM14.625 12.375V12.0498L12.0938 9.51855L11.1973 10.4062L13.1748 12.375H14.625ZM12.9375 6.75C12.7852 6.75 12.6533 6.69434 12.542 6.58301C12.4307 6.47168 12.375 6.33984 12.375 6.1875C12.375 6.03516 12.4307 5.90332 12.542 5.79199C12.6533 5.68066 12.7852 5.625 12.9375 5.625C13.0898 5.625 13.2217 5.68066 13.333 5.79199C13.4443 5.90332 13.5 6.03516 13.5 6.1875C13.5 6.33984 13.4443 6.47168 13.333 6.58301C13.2217 6.69434 13.0898 6.75 12.9375 6.75ZM18 0V18H0V0H18ZM16.875 1.125H1.125V16.875H16.875V1.125Z" fill="#252525"/>
</svg>
