<?xml version="1.0" encoding="utf-8"?>
<!-- Generator: Adobe Illustrator 25.1.0, SVG Export Plug-In . SVG Version: 6.00 Build 0)  -->
<svg version="1.1" id="Layer_1" xmlns="http://www.w3.org/2000/svg" xmlns:xlink="http://www.w3.org/1999/xlink" x="0px" y="0px"
	 width="16px" height="16px" viewBox="0 0 16 16" enable-background="new 0 0 16 16" xml:space="preserve">
<path d="M15,15v-1h-1v-3h1v-1h-1V7h1V6h-1V3h1V2h-1V1h-1v1h-3V1H9v1H6V1H5v1H2V1H1v14H15z M9,3v3H6V3H9z M9,7v3H6V7H9z M2,3h3v3H2V3
	z M2,7h3v3H2V7z M2,14v-3h3v3H2z M6,14v-3h3v3H6z M13,14h-3v-3h3V14z M13,10h-3V7h3V10z M13,6h-3V3h3V6z"/>
</svg>
