<svg width="32" height="32" viewBox="0 0 17 17" fill="none" xmlns="http://www.w3.org/2000/svg">
<path d="M0 1.125V0H1.125V1.125H0ZM0 3.375V2.25H1.125V3.375H0ZM0 5.625V4.5H1.125V5.625H0ZM0 7.875V6.75H1.125V7.875H0ZM0 10.125V9H1.125V10.125H0ZM0 12.375V11.25H1.125V12.375H0ZM0 14.625V13.5H1.125V14.625H0ZM0 16.875V15.75H1.125V16.875H0ZM15.75 3.375V2.25H16.875V3.375H15.75ZM15.75 5.625V4.5H16.875V5.625H15.75ZM15.75 7.875V6.75H16.875V7.875H15.75ZM15.75 10.125V9H16.875V10.125H15.75ZM15.75 12.375V11.25H16.875V12.375H15.75ZM15.75 14.625V13.5H16.875V14.625H15.75ZM15.75 16.875V15.75H16.875V16.875H15.75ZM3.375 0V1.125H2.25V0H3.375ZM5.625 0V1.125H4.5V0H5.625ZM7.875 0V1.125H6.75V0H7.875ZM10.125 0V1.125H9V0H10.125ZM12.375 0V1.125H11.25V0H12.375ZM13.5 1.125V0H14.625V1.125H13.5ZM2.25 16.875V15.75H3.375V16.875H2.25ZM4.5 16.875V15.75H5.625V16.875H4.5ZM6.75 16.875V15.75H7.875V16.875H6.75ZM9 16.875V15.75H10.125V16.875H9ZM11.25 16.875V15.75H12.375V16.875H11.25ZM13.5 16.875V15.75H14.625V16.875H13.5ZM15.75 0H16.875V1.125H15.75V0ZM13.5 3.375V13.5H3.375V3.375H13.5ZM12.375 7.875V4.5H9V7.875H12.375ZM7.875 4.5H4.5V7.875H7.875V4.5ZM4.5 9V12.375H7.875V9H4.5ZM9 12.375H12.375V9H9V12.375Z" fill="#252525"/>
</svg>
