<svg xmlns="http://www.w3.org/2000/svg" viewBox="0 0 32 32"><title>icons</title><rect x="3.60059" y="7.13184" width="10.72217" height="14.81641" rx="0.25" style="opacity:0.2"/><path d="M13.82252,7.6322V21.44857H4.10076V7.6322h9.72176m.25-1H3.85076a.75.75,0,0,0-.75.75V21.69857a.75.75,0,0,0,.75.75H14.07252a.75.75,0,0,0,.75-.75V7.3822a.75.75,0,0,0-.75-.75Z"/><rect x="17.67725" y="14.04492" width="10.72217" height="7.90332" rx="0.25" style="opacity:0.2"/><path d="M27.89924,14.54486v6.90371H18.17748V14.54486h9.72176m.25-1H17.92748a.75.75,0,0,0-.75.75v7.40371a.75.75,0,0,0,.75.75H28.14924a.75.75,0,0,0,.75-.75V14.29486a.75.75,0,0,0-.75-.75Z"/><line x1="2.10076" y1="25.3678" x2="29.89924" y2="25.3678" style="fill:none;stroke:#000;stroke-linecap:round;stroke-miterlimit:10;stroke-width:1.5px"/></svg>