<svg xmlns="http://www.w3.org/2000/svg" viewBox="0 0 32 32"><title>icons</title><path d="M25.5,5h-7a1.5,1.5,0,0,0,0,3h3.37891l-6.87729,6.87728a1.5595,1.5595,0,0,0-.30613,1.86789,1.50249,1.50249,0,0,0,2.36506.31538L24,10.12109V13.5a1.5,1.5,0,0,0,3,0v-7A1.5,1.5,0,0,0,25.5,5Z"/><path d="M24,17.75v5.5a.75.75,0,0,1-.75.75H8.75A.75.75,0,0,1,8,23.25V8.75A.75.75,0,0,1,8.75,8h5.5A.75.75,0,0,0,15,7.25V5.75A.75.75,0,0,0,14.25,5H5.75A.75.75,0,0,0,5,5.75v20.5a.75.75,0,0,0,.75.75h20.5a.75.75,0,0,0,.75-.75v-8.5a.75.75,0,0,0-.75-.75h-1.5A.75.75,0,0,0,24,17.75Z"/></svg>