<svg xmlns="http://www.w3.org/2000/svg" viewBox="0 0 32 32"><title>icons</title><circle cx="16" cy="16" r="11.5" style="fill:none;stroke:#000;stroke-linecap:round;stroke-miterlimit:10;stroke-width:1.5px"/><path d="M30.59082,15.5H22.628a6.65085,6.65085,0,0,0-2.87952-4.99225l3.98-6.89349a.50008.50008,0,0,0-.86622-.5L18.88007,10.0116a6.5699,6.5699,0,0,0-5.76014,0L9.1377,3.11426a.50008.50008,0,0,0-.86622.5l3.98005,6.89349A6.65085,6.65085,0,0,0,9.372,15.5H1.40918a.5.5,0,0,0,0,1H9.372a6.65085,6.65085,0,0,0,2.87952,4.99225l-3.98,6.89349a.49927.49927,0,0,0,.18311.68262.49284.49284,0,0,0,.24951.06738.50058.50058,0,0,0,.4336-.25l3.98223-6.89734a6.5699,6.5699,0,0,0,5.76014,0l3.98223,6.89734a.50058.50058,0,0,0,.4336.25.49284.49284,0,0,0,.24951-.06738.49927.49927,0,0,0,.18311-.68262l-3.98-6.89349A6.65085,6.65085,0,0,0,22.628,16.5h7.96283a.5.5,0,0,0,0-1Zm-8.96283,0H16.86615l2.37952-4.12134A5.64992,5.64992,0,0,1,21.628,15.5ZM16,10.34668a5.60912,5.60912,0,0,1,2.37927.53223L16,14.99988l-2.37927-4.121A5.60912,5.60912,0,0,1,16,10.34668Zm-3.24567,1.032L15.13385,15.5H10.372A5.64992,5.64992,0,0,1,12.75433,11.37866ZM10.372,16.5h4.76184l-2.37952,4.12134A5.64992,5.64992,0,0,1,10.372,16.5ZM16,21.65332a5.60916,5.60916,0,0,1-2.37927-.53229L16,17.00012l2.37927,4.121A5.61022,5.61022,0,0,1,16,21.65332Zm3.24567-1.032L16.86615,16.5H21.628A5.64992,5.64992,0,0,1,19.24567,20.62134Z" style="opacity:0.5"/><line x1="16.00001" y1="16.00001" x2="27.5" y2="16" style="fill:none;stroke:#000;stroke-linecap:round;stroke-linejoin:round;stroke-width:1.5px"/></svg>