<svg width="32" height="32" viewBox="0 0 18 16" fill="none" xmlns="http://www.w3.org/2000/svg">
<path fill-rule="evenodd" clip-rule="evenodd" d="M15.1111 1.33333C14.3747 1.33333 13.7778 1.93029 13.7778 2.66667C13.7778 3.40305 14.3747 4 15.1111 4C15.8475 4 16.4444 3.40305 16.4444 2.66667C16.4444 1.93029 15.8475 1.33333 15.1111 1.33333ZM12.4444 2.66667C12.4444 1.19391 13.6384 0 15.1111 0C16.5839 0 17.7778 1.19391 17.7778 2.66667C17.7778 4.13943 16.5839 5.33333 15.1111 5.33333C14.9673 5.33333 14.8262 5.32195 14.6885 5.30003L12.8769 8.28528C13.165 8.71118 13.3333 9.22483 13.3333 9.77778C13.3333 11.2505 12.1394 12.4444 10.6667 12.4444C9.86412 12.4444 9.14438 12.0899 8.65551 11.5289L5.32963 13.1916C5.33209 13.2385 5.33333 13.2858 5.33333 13.3333C5.33333 14.8061 4.13943 16 2.66667 16C1.19391 16 0 14.8061 0 13.3333C0 11.8606 1.19391 10.6667 2.66667 10.6667C3.61437 10.6667 4.4466 11.161 4.91955 11.9059L8.05866 10.3367C8.02023 10.1564 8 9.96947 8 9.77778C8 8.30502 9.19391 7.11111 10.6667 7.11111C11.0954 7.11111 11.5004 7.21227 11.8593 7.39202L13.4574 4.75874C12.8403 4.27032 12.4444 3.51472 12.4444 2.66667ZM10.6667 8.44444C9.93029 8.44444 9.33333 9.0414 9.33333 9.77778C9.33333 10.5142 9.93029 11.1111 10.6667 11.1111C11.403 11.1111 12 10.5142 12 9.77778C12 9.0414 11.403 8.44444 10.6667 8.44444ZM2.66667 12C1.93029 12 1.33333 12.597 1.33333 13.3333C1.33333 14.0697 1.93029 14.6667 2.66667 14.6667C3.40305 14.6667 4 14.0697 4 13.3333C4 12.597 3.40305 12 2.66667 12Z" fill="#212121"/>
</svg>
