<?xml version="1.0" encoding="utf-8"?>
<!-- Generator: Adobe Illustrator 25.1.0, SVG Export Plug-In . SVG Version: 6.00 Build 0)  -->
<svg version="1.1" id="Layer_1" xmlns="http://www.w3.org/2000/svg" xmlns:xlink="http://www.w3.org/1999/xlink" x="0px" y="0px"
	 width="16px" height="16px" viewBox="0 0 16 16" enable-background="new 0 0 16 16" xml:space="preserve">
<path d="M14.5,6C13.672,6,13,6.672,13,7.5c0,0.172,0.035,0.335,0.088,0.489l0,0l-2.8,2.24C10.059,10.086,9.79,10,9.5,10
	c-0.032,0-0.063,0.008-0.094,0.01L7.515,5.599c0,0,0,0,0,0C7.811,5.325,8,4.936,8,4.5C8,3.672,7.328,3,6.5,3S5,3.672,5,4.5
	c0,0.172,0.035,0.335,0.088,0.489l0,0l-2.8,2.24l0,0C2.059,7.086,1.79,7,1.5,7C0.672,7,0,7.672,0,8.5S0.672,10,1.5,10S3,9.328,3,8.5
	c0-0.172-0.035-0.335-0.088-0.489l0,0l2.8-2.24l0,0C5.941,5.914,6.21,6,6.5,6c0.032,0,0.063-0.008,0.095-0.01l1.89,4.411
	C8.189,10.676,8,11.065,8,11.5C8,12.328,8.672,13,9.5,13s1.5-0.672,1.5-1.5c0-0.172-0.035-0.335-0.088-0.489l0,0l2.8-2.24l0,0
	C13.941,8.914,14.21,9,14.5,9C15.328,9,16,8.328,16,7.5S15.328,6,14.5,6z M1.5,9.1c-0.331,0-0.6-0.269-0.6-0.6
	c0-0.331,0.269-0.6,0.6-0.6s0.6,0.269,0.6,0.6C2.1,8.831,1.831,9.1,1.5,9.1z M2.659,7.558C2.662,7.563,2.666,7.567,2.67,7.572
	C2.666,7.567,2.662,7.563,2.659,7.558z M5.33,5.428c0.004,0.004,0.007,0.009,0.011,0.013C5.338,5.437,5.334,5.433,5.33,5.428z
	 M5.9,4.5c0-0.331,0.269-0.6,0.6-0.6s0.6,0.269,0.6,0.6c0,0.331-0.269,0.6-0.6,0.6S5.9,4.831,5.9,4.5z M9.5,12.1
	c-0.331,0-0.6-0.269-0.6-0.6c0-0.331,0.269-0.6,0.6-0.6s0.6,0.269,0.6,0.6C10.1,11.831,9.831,12.1,9.5,12.1z M10.659,10.559
	c0.004,0.004,0.007,0.008,0.011,0.013C10.666,10.567,10.663,10.563,10.659,10.559z M13.33,8.428
	c0.004,0.004,0.007,0.009,0.011,0.013C13.338,8.437,13.334,8.433,13.33,8.428z M14.5,8.1c-0.331,0-0.6-0.269-0.6-0.6
	c0-0.331,0.269-0.6,0.6-0.6s0.6,0.269,0.6,0.6C15.1,7.831,14.831,8.1,14.5,8.1z"/>
</svg>
