<svg xmlns="http://www.w3.org/2000/svg" viewBox="0 0 32 32"><title>icons</title><path d="M9.11449,15.75411v4.99441a2.86179,2.86179,0,0,0,2.8534,2.85339h3.04864" style="fill:none;stroke:#000;stroke-linecap:round;stroke-miterlimit:10;stroke-width:1.2px"/><line x1="9.11449" y1="15.75411" x2="11.79822" y2="18.43784" style="fill:none;stroke:#000;stroke-linecap:round;stroke-miterlimit:10;stroke-width:1.2px"/><line x1="9.11449" y1="15.75411" x2="6.43076" y2="18.43784" style="fill:none;stroke:#000;stroke-linecap:round;stroke-miterlimit:10;stroke-width:1.2px"/><rect x="4.91958" y="4.20318" width="8.38982" height="8.38982" transform="translate(17.51258 -0.7164) rotate(90)" style="fill:none;stroke:#000;stroke-linecap:round;stroke-linejoin:round;stroke-width:1.5px"/><path d="M22.88551,16.24589V11.25148a2.86179,2.86179,0,0,0-2.8534-2.85339H16.98347" style="fill:none;stroke:#000;stroke-linecap:round;stroke-miterlimit:10;stroke-width:1.2px"/><line x1="22.88551" y1="16.24589" x2="20.20178" y2="13.56216" style="fill:none;stroke:#000;stroke-linecap:round;stroke-miterlimit:10;stroke-width:1.2px"/><line x1="22.88551" y1="16.24589" x2="25.56924" y2="13.56216" style="fill:none;stroke:#000;stroke-linecap:round;stroke-miterlimit:10;stroke-width:1.2px"/><polyline points="19.878 19.407 18.691 19.407 18.691 20.595" style="fill:none;stroke:#000;stroke-linecap:round;stroke-linejoin:round;stroke-width:1.2px"/><line x1="18.69061" y1="22.85014" x2="18.69061" y2="25.48134" style="fill:none;stroke:#000;stroke-linecap:round;stroke-linejoin:round;stroke-width:1.2px;stroke-dasharray:1.5035455226898193,2.2553179264068604"/><polyline points="18.691 26.609 18.691 27.797 19.878 27.797" style="fill:none;stroke:#000;stroke-linecap:round;stroke-linejoin:round;stroke-width:1.2px"/><line x1="22.13373" y1="27.79683" x2="24.76495" y2="27.79683" style="fill:none;stroke:#000;stroke-linecap:round;stroke-linejoin:round;stroke-width:1.2px;stroke-dasharray:1.5035455226898193,2.2553179264068604"/><polyline points="25.893 27.797 27.08 27.797 27.08 26.609" style="fill:none;stroke:#000;stroke-linecap:round;stroke-linejoin:round;stroke-width:1.2px"/><line x1="27.08044" y1="24.35368" x2="27.08044" y2="21.72249" style="fill:none;stroke:#000;stroke-linecap:round;stroke-linejoin:round;stroke-width:1.2px;stroke-dasharray:1.5035455226898193,2.2553179264068604"/><polyline points="27.08 20.595 27.08 19.407 25.893 19.407" style="fill:none;stroke:#000;stroke-linecap:round;stroke-linejoin:round;stroke-width:1.2px"/><line x1="23.63727" y1="19.407" x2="21.0061" y2="19.407" style="fill:none;stroke:#000;stroke-linecap:round;stroke-linejoin:round;stroke-width:1.2px;stroke-dasharray:1.5035455226898193,2.2553179264068604"/></svg>