<svg xmlns="http://www.w3.org/2000/svg" viewBox="0 0 32 32"><title>icons</title><path d="M16.0595,13.1478h-.62693a4.2624,4.2624,0,0,0-.296-.77684,6.98788,6.98788,0,0,0-.47777-.84954,4.2986,4.2986,0,0,0-.59664-.73141,1.18694,1.18694,0,0,0-.6239-.35889c-.18853-.02423-.42476-.0424-.71021-.05452s-.5497-.01817-.792-.01817h-.52849V20.67092a1.19389,1.19389,0,0,0,.1272.54969.84736.84736,0,0,0,.44521.38615,5.38217,5.38217,0,0,0,.686.17263,5.04184,5.04184,0,0,0,.81319.11812l.00454.77314H7.3961l-.00454-.77314q.25441-.01816.77685-.07269a2.99166,2.99166,0,0,0,.72232-.13628.88226.88226,0,0,0,.44067-.34073,1.10234,1.10234,0,0,0,.14083-.59512V10.35843h-.527q-.28167,0-.69961.01363t-.79956.05906a1.10724,1.10724,0,0,0-.62239.35889,4.77846,4.77846,0,0,0-.59512.73141,6.1749,6.1749,0,0,0-.48155.86771,5.26483,5.26483,0,0,0-.29075.75867h-.636V9.32935H16.0595Z"/><path d="M20.131,15.89843H27.87a.65494.65494,0,0,1,.46311,1.118l-3.86947,3.86947a.65493.65493,0,0,1-.92622,0l-3.86947-3.86947A.65494.65494,0,0,1,20.131,15.89843Z"/></svg>