<svg width="32" height="32" viewBox="0 0 15 18" fill="none" xmlns="http://www.w3.org/2000/svg">
    <path
        transform="translate(1, 1.5) scale(0.75)"
        d="M9.9248 0L14.75 4.8252V18H0.125V0H9.9248ZM10.25 1.9248V4.5H12.8252L10.25 1.9248ZM13.625 16.875V5.625H9.125V1.125H1.25V16.875H13.625ZM6.875 7.33008V6.75H12.5V12.375H9.32715L11.208 15.75H3.66699L5.56543 12.3311C5.50098 12.3428 5.43652 12.3545 5.37207 12.3662C5.31348 12.3721 5.25195 12.375 5.1875 12.375C4.80078 12.375 4.43457 12.3018 4.08887 12.1553C3.74902 12.0088 3.4502 11.8096 3.19238 11.5576C2.94043 11.2998 2.74121 11.001 2.59473 10.6611C2.44824 10.3154 2.375 9.94922 2.375 9.5625C2.375 9.17578 2.44824 8.8125 2.59473 8.47266C2.74121 8.13281 2.94043 7.83691 3.19238 7.58496C3.4502 7.32715 3.74902 7.125 4.08887 6.97852C4.43457 6.82617 4.80078 6.75 5.1875 6.75C5.49219 6.75 5.78809 6.7998 6.0752 6.89941C6.3623 6.99902 6.62891 7.14258 6.875 7.33008ZM5.1875 11.25C5.41602 11.25 5.63281 11.2061 5.83789 11.1182C6.04297 11.0303 6.22168 10.9102 6.37402 10.7578C6.53223 10.5996 6.65527 10.418 6.74316 10.2129C6.83105 10.0078 6.875 9.79102 6.875 9.5625C6.875 9.32812 6.83105 9.1084 6.74316 8.90332C6.65527 8.69824 6.53516 8.51953 6.38281 8.36719C6.23047 8.21484 6.05176 8.09473 5.84668 8.00684C5.6416 7.91895 5.42188 7.875 5.1875 7.875C4.95312 7.875 4.7334 7.91895 4.52832 8.00684C4.32324 8.09473 4.14453 8.21484 3.99219 8.36719C3.83984 8.51953 3.71973 8.69824 3.63184 8.90332C3.54395 9.1084 3.5 9.32812 3.5 9.5625C3.5 9.79688 3.54395 10.0166 3.63184 10.2217C3.71973 10.4268 3.83984 10.6055 3.99219 10.7578C4.14453 10.9102 4.32324 11.0303 4.52832 11.1182C4.7334 11.2061 4.95312 11.25 5.1875 11.25ZM8 7.875V9.97559L8.70312 11.25H11.375V7.875H8ZM9.29199 14.625L7.4375 11.2852L5.58301 14.625H9.29199Z"
        fill="#252525" />
</svg>