<svg xmlns="http://www.w3.org/2000/svg" viewBox="0 0 32 32"><title>icons</title><path d="M16,4.38654A11.61346,11.61346,0,1,0,27.61346,16,11.61346,11.61346,0,0,0,16,4.38654Zm1.11426,17.78851a1.58538,1.58538,0,0,1-.36231.52539,1.67949,1.67949,0,0,1-.54.34766,1.75551,1.75551,0,0,1-.666.12548,1.77927,1.77927,0,0,1-.67481-.12548,1.61346,1.61346,0,0,1-.89257-.87305,1.63494,1.63494,0,0,1-.12989-.65137,1.598,1.598,0,0,1,.12989-.64648,1.63493,1.63493,0,0,1,.35742-.521,1.68328,1.68328,0,0,1,.53515-.35205,1.71768,1.71768,0,0,1,.67481-.13037,1.69486,1.69486,0,0,1,.666.13037,1.7505,1.7505,0,0,1,.54.35205,1.59154,1.59154,0,0,1,.49219,1.16748A1.63511,1.63511,0,0,1,17.11426,22.17505Zm2.60937-8.66455a3.518,3.518,0,0,1-.51074.93115,3.915,3.915,0,0,1-.68066.68506q-.3706.28931-.70411.53564a5.47622,5.47622,0,0,0-.5791.48731,1.0837,1.0837,0,0,0-.31347.54L16.665,18.04028H14.62012l-.21192-1.55322a1.34129,1.34129,0,0,1,.09571-.82471,2.21724,2.21724,0,0,1,.47754-.63672,5.59466,5.59466,0,0,1,.68066-.54052,6.61884,6.61884,0,0,0,.7041-.54981,3.07383,3.07383,0,0,0,.55469-.65625,1.59075,1.59075,0,0,0,.22656-.86377,1.17815,1.17815,0,0,0-.38086-.92138,1.50958,1.50958,0,0,0-1.04687-.34229,2.94136,2.94136,0,0,0-.85352.106,3.4784,3.4784,0,0,0-.58887.23633q-.24609.13036-.42871.23681a.73009.73009,0,0,1-.36718.106.66416.66416,0,0,1-.61719-.35693l-.791-1.21582a6.68364,6.68364,0,0,1,.77637-.55957,6.10415,6.10415,0,0,1,.90234-.4585,5.692,5.692,0,0,1,1.03711-.30859,6.14917,6.14917,0,0,1,1.20117-.11084,5.19661,5.19661,0,0,1,1.63575.24121,3.53486,3.53486,0,0,1,1.23925.68994,3.01316,3.01316,0,0,1,.78614,1.08056,3.47765,3.47765,0,0,1,.27539,1.40381A3.567,3.567,0,0,1,19.72363,13.5105Z"/></svg>