<?xml version="1.0" encoding="utf-8"?>
<!-- Generator: Adobe Illustrator 25.1.0, SVG Export Plug-In . SVG Version: 6.00 Build 0)  -->
<svg version="1.1" id="Layer_1" xmlns="http://www.w3.org/2000/svg" xmlns:xlink="http://www.w3.org/1999/xlink" x="0px" y="0px"
	 width="16px" height="16px" viewBox="0 0 16 16" enable-background="new 0 0 16 16" xml:space="preserve">
<path d="M9.921,2.452c1.605,0.183,3.154,0.591,4.626,1.219l-4.508,9.016c-0.223-0.072-0.448-0.133-0.676-0.181L9.921,2.452
	 M8.979,1.369L8.313,13.373c0.762,0.042,1.508,0.241,2.206,0.589l5.383-10.766C13.719,2.105,11.362,1.501,8.979,1.369L8.979,1.369z
	 M6.079,2.452l0.559,10.055c-0.228,0.048-0.453,0.109-0.676,0.181L1.453,3.671C2.925,3.043,4.474,2.634,6.079,2.452 M7.021,1.369
	c-2.383,0.132-4.74,0.736-6.922,1.828l5.383,10.766c0.698-0.349,1.444-0.547,2.206-0.589L7.021,1.369L7.021,1.369z"/>
</svg>
