<svg xmlns="http://www.w3.org/2000/svg" viewBox="0 0 32 32"><title>icons</title><rect x="5.85449" y="5.85449" width="8.50488" height="8.50488" rx="0.25" style="opacity:0.2"/><path d="M13.8597,6.3541v7.5056H6.3541V6.3541h7.5056m.25-1H6.1041a.75.75,0,0,0-.75.75v8.0056a.75.75,0,0,0,.75.75h8.0056a.75.75,0,0,0,.75-.75V6.1041a.75.75,0,0,0-.75-.75Z"/><rect x="17.64063" y="5.85449" width="8.50488" height="8.50488" rx="0.25" style="opacity:0.2"/><path d="M25.6459,6.3541v7.5056H18.1403V6.3541h7.5056m.25-1H17.8903a.75.75,0,0,0-.75.75v8.0056a.75.75,0,0,0,.75.75h8.0056a.75.75,0,0,0,.75-.75V6.1041a.75.75,0,0,0-.75-.75Z"/><rect x="17.64063" y="17.64063" width="8.50488" height="8.50488" rx="0.25" style="opacity:0.2"/><path d="M25.6459,18.1403v7.5056H18.1403V18.1403h7.5056m.25-1H17.8903a.75.75,0,0,0-.75.75v8.0056a.75.75,0,0,0,.75.75h8.0056a.75.75,0,0,0,.75-.75V17.8903a.75.75,0,0,0-.75-.75Z"/><rect x="5.85449" y="17.64063" width="8.50488" height="8.50488" rx="0.25" style="opacity:0.2"/><path d="M13.8597,18.1403v7.5056H6.3541V18.1403h7.5056m.25-1H6.1041a.75.75,0,0,0-.75.75v8.0056a.75.75,0,0,0,.75.75h8.0056a.75.75,0,0,0,.75-.75V17.8903a.75.75,0,0,0-.75-.75Z"/></svg>