<svg xmlns="http://www.w3.org/2000/svg" viewBox="0 0 32 32">
    <title>icons</title>
    <g style="opacity:0.8">
        <path
            d="M23.39726,12.24558H22.572a5.61129,5.61129,0,0,0-.3897-1.02258,9.19845,9.19845,0,0,0-.62889-1.11826,5.65748,5.65748,0,0,0-.78538-.96278,1.56243,1.56243,0,0,0-.82125-.47242c-.24817-.03189-.55913-.05581-.93487-.07176s-.72358-.02392-1.04251-.02392h-.69567V22.14844a1.57166,1.57166,0,0,0,.16743.72358,1.11549,1.11549,0,0,0,.586.5083,7.087,7.087,0,0,0,.903.22724,6.63621,6.63621,0,0,0,1.07042.15548l.006,1.01771H11.99341l-.006-1.01771q.33489-.02393,1.02258-.09568a3.93776,3.93776,0,0,0,.95082-.1794,1.16128,1.16128,0,0,0,.58006-.4485,1.45108,1.45108,0,0,0,.18538-.78338V8.57386h-.69368q-.37076,0-.92092.01794t-1.05248.07774a1.4575,1.4575,0,0,0-.81926.47242,6.28993,6.28993,0,0,0-.78337.96278,8.12846,8.12846,0,0,0-.63388,1.14218,6.93109,6.93109,0,0,0-.38272.99866h-.8372V7.21925h14.7945Z" />
    </g>
    <line x1="16.00001" y1="6.03489" x2="16.00001" y2="25.96511"
        style="fill:none;stroke:#000;stroke-linecap:round;stroke-miterlimit:10;stroke-width:1.5px" />
</svg>