<?xml version="1.0" encoding="utf-8"?>
<!-- Generator: Adobe Illustrator 25.1.0, SVG Export Plug-In . SVG Version: 6.00 Build 0)  -->
<svg version="1.1" id="Layer_1" xmlns="http://www.w3.org/2000/svg" xmlns:xlink="http://www.w3.org/1999/xlink" x="0px" y="0px"
	 width="16px" height="16px" viewBox="0 0 16 16" enable-background="new 0 0 16 16" xml:space="preserve">
<path d="M12.317,2H0V1h15v0.987V2h-0.031l-3.948,1.607l-0.377-0.926L12.317,2z M10.644,8.681l0.377,0.926L14.969,8H15V7.987V7H2.683
	l1.674-0.681L3.979,5.393L0.031,7H0v0.013v0.54V8h12.317L10.644,8.681z M5.591,5.816l4.194-1.707L9.408,3.184L5.214,4.891
	L5.591,5.816z M5.591,11.816l4.194-1.707L9.408,9.184l-4.194,1.707L5.591,11.816z M13.707,11.379L13,12.086L13.914,13H2.683
	l1.674-0.681l-0.377-0.926L0.031,13H0v0.013V14h13.914L13,14.914l0.707,0.707l2.121-2.121L13.707,11.379z"/>
</svg>
