<svg xmlns="http://www.w3.org/2000/svg" viewBox="0 0 32 32">
    <title>icons</title>
    <path
        d="M14.60522,16.96191a9.88162,9.88162,0,0,0-5.57592,2.7674l4.09118,4.09119a4.10076,4.10076,0,0,1,2.314-1.12311Z"
        style="fill-opacity:0.0;stroke:#000;stroke-linejoin:round" />
    <path
        d="M17.42847,16.967l-.829,5.73377a4.10216,4.10216,0,0,1,2.28,1.11969l4.09119-4.09119A9.88259,9.88259,0,0,0,17.42847,16.967Z"
        style="fill-opacity:0.0;stroke:#000;stroke-linejoin:round" />
    <path
        d="M13.349,8.27356A18.63485,18.63485,0,0,0,2.81183,13.5119l4.09711,4.097a12.87437,12.87437,0,0,1,7.26751-3.6128Z"
        style="fill-opacity:0.0;stroke:#000;stroke-linejoin:round" />
    <path
        d="M18.68475,8.27869l-.82745,5.72265A12.87438,12.87438,0,0,1,25.09094,17.609l4.09717-4.09717A18.63465,18.63465,0,0,0,18.68475,8.27869Z"
        style="fill-opacity:0.0;stroke:#000;stroke-linejoin:round" />
</svg>