<svg xmlns="http://www.w3.org/2000/svg" viewBox="0 0 32 32">
    <title>icons</title>
    <g style="opacity:0.8">
        <path
            d="M23.39725,13.3552H22.572a5.611,5.611,0,0,0-.3897-1.02257,9.19769,9.19769,0,0,0-.62889-1.11826,5.65752,5.65752,0,0,0-.78537-.96278,1.56245,1.56245,0,0,0-.82126-.47242c-.24817-.03189-.55913-.05581-.93487-.07176s-.72358-.02392-1.04251-.02392h-.69567V23.25807a1.57154,1.57154,0,0,0,.16744.72358,1.11545,1.11545,0,0,0,.586.5083,7.08655,7.08655,0,0,0,.903.22724,6.63725,6.63725,0,0,0,1.07041.15548l.006,1.0177H11.99341l-.006-1.0177q.33488-.02392,1.02257-.09568a3.93776,3.93776,0,0,0,.95082-.1794,1.16135,1.16135,0,0,0,.58006-.4485,1.4511,1.4511,0,0,0,.18538-.78338V9.68349h-.69368q-.37075,0-.92092.01794t-1.05247.07774a1.45741,1.45741,0,0,0-.81926.47242,6.28891,6.28891,0,0,0-.78338.96278,8.12891,8.12891,0,0,0-.63388,1.14218A6.931,6.931,0,0,0,9.44,13.3552h-.8372V8.32888h14.7945Z" />
    </g>
    <line x1="25.96511" y1="6.10963" x2="6.03489" y2="6.10963"
        style="fill:none;stroke:#000;stroke-linecap:round;stroke-miterlimit:10;stroke-width:1.5px" />
</svg>