<svg xmlns="http://www.w3.org/2000/svg" viewBox="0 0 32 32"><title>icons</title><rect x="5.85449" y="5.85417" width="8.4707" height="20.29199" rx="0.25" style="opacity:0.2"/><path d="M13.82564,6.3541V25.6459H6.3541V6.3541h7.47154m.25-1H6.1041a.75.75,0,0,0-.75.75V25.8959a.75.75,0,0,0,.75.75h7.97154a.75.75,0,0,0,.75-.75V6.1041a.75.75,0,0,0-.75-.75Z"/><rect x="17.6748" y="5.85417" width="8.4707" height="20.29199" rx="0.25" style="opacity:0.2"/><path d="M25.6459,6.3541V25.6459H18.17436V6.3541H25.6459m.25-1H17.92436a.75.75,0,0,0-.75.75V25.8959a.75.75,0,0,0,.75.75H25.8959a.75.75,0,0,0,.75-.75V6.1041a.75.75,0,0,0-.75-.75Z"/></svg>