<svg xmlns="http://www.w3.org/2000/svg" viewBox="0 0 32 32"><title>icons</title><path d="M18.99553,14.93934,14.04578,9.98959a1.5,1.5,0,0,0-2.12132,2.12132l2.38924,2.38925H6.58776a1.55952,1.55952,0,0,0-1.53727,1.10433,1.50249,1.50249,0,0,0,1.44935,1.89535H14.3137l-2.38924,2.38925a1.5,1.5,0,1,0,2.12132,2.12132l4.94975-4.94975A1.5,1.5,0,0,0,18.99553,14.93934Z"/><path d="M20.13336,9V8h3.25a.75.75,0,0,1,.75.75v14.5a.75.75,0,0,1-.75.75h-3.25V23h-2.25a.75.75,0,0,0-.75.75v2.5a.75.75,0,0,0,.75.75h8.5a.75.75,0,0,0,.75-.75V5.75a.75.75,0,0,0-.75-.75h-8.5a.75.75,0,0,0-.75.75v2.5a.75.75,0,0,0,.75.75Z"/></svg>