<?xml version="1.0" encoding="utf-8"?>
<!-- Generator: Adobe Illustrator 25.1.0, SVG Export Plug-In . SVG Version: 6.00 Build 0)  -->
<svg version="1.1" id="Layer_1" xmlns="http://www.w3.org/2000/svg" xmlns:xlink="http://www.w3.org/1999/xlink" x="0px" y="0px"
	 width="16px" height="16px" viewBox="0 0 16 16" enable-background="new 0 0 16 16" xml:space="preserve">
<g>
	<path d="M15,1h-2v1h2V1L15,1z M12,1h-2v1h2V1L12,1z M9,1H7v1h2V1L9,1z M6,1H4v1h2V1L6,1z M3,1H0v1h1v11H0v1h3v-1H2V2h1V1L3,1z
		 M15,5h-2v1h2V5L15,5z M12,5h-2v1h2V5L12,5z M9,5H7v1h2V5L9,5z M6,5H4v1h2V5L6,5z M15,9h-2v1h2V9L15,9z M12,9h-2v1h2V9L12,9z M9,9
		H7v1h2V9L9,9z M6,9H4v1h2V9L6,9z M15,13h-2v1h2V13L15,13z M12,13h-2v1h2V13L12,13z M9,13H7v1h2V13L9,13z M6,13H4v1h2V13L6,13z"/>
</g>
</svg>
