<svg width="18" height="18" viewBox="0 0 18 18" fill="none" xmlns="http://www.w3.org/2000/svg">
    <path
        transform="translate(1, 1.5) scale(0.75)"
        d="M12.9375 0L18 5.0625L5.0625 18L0 12.9375L12.9375 0ZM1.59082 12.9375L5.0625 16.4092L16.4092 5.0625L12.9375 1.59082L12.1641 2.36426L13.1748 3.375L12.375 4.1748L11.3643 3.16406L9.91406 4.61426L11.6455 6.35449L10.8545 7.14551L9.11426 5.41406L7.66406 6.86426L8.6748 7.88379L7.88379 8.6748L6.86426 7.66406L5.41406 9.11426L7.14551 10.8545L6.35449 11.6455L4.61426 9.91406L3.16406 11.3643L4.1748 12.375L3.375 13.1748L2.36426 12.1641L1.59082 12.9375Z"
        fill="#252525" />
</svg>