<svg xmlns="http://www.w3.org/2000/svg" viewBox="0 0 32 32"><title>icons</title><rect x="10.05127" y="3.60059" width="14.81641" height="10.72168" rx="0.25" style="opacity:0.2"/><path d="M24.36781,4.10076v9.72176H10.55142V4.10076H24.36781m.25-1H10.30142a.75.75,0,0,0-.75.75V14.07252a.75.75,0,0,0,.75.75H24.61781a.75.75,0,0,0,.75-.75V3.85076a.75.75,0,0,0-.75-.75Z"/><rect x="10.05127" y="17.67773" width="7.90381" height="10.72168" rx="0.25" style="opacity:0.2"/><path d="M17.45514,18.17748v9.72175H10.55143V18.17748h6.90371m.25-1H10.30143a.75.75,0,0,0-.75.75V28.14923a.75.75,0,0,0,.75.75h7.40371a.75.75,0,0,0,.75-.75V17.92748a.75.75,0,0,0-.75-.75Z"/><line x1="6.6322" y1="2.10076" x2="6.6322" y2="29.89924" style="fill:none;stroke:#000;stroke-linecap:round;stroke-miterlimit:10;stroke-width:1.5px"/></svg>