<svg xmlns="http://www.w3.org/2000/svg" viewBox="0 0 32 32"><title>icons</title><rect x="5.85352" y="5.86133" width="12.44922" height="12.44824" rx="0.25" style="opacity:0.2"/><path d="M17.8027,6.36122v11.4487H6.354V6.36122H17.8027m.25-1H6.104a.75.75,0,0,0-.75.75v11.9487a.75.75,0,0,0,.75.75H18.0527a.75.75,0,0,0,.75-.75V6.11122a.75.75,0,0,0-.75-.75Z"/><rect x="13.56017" y="13.66037" width="12.44922" height="12.44824" rx="0.25" style="opacity:0.2"/><path d="M25.50936,14.16026V25.609H14.06066V14.16026h11.4487m.25-1H13.81066a.75.75,0,0,0-.75.75V25.859a.75.75,0,0,0,.75.75h11.9487a.75.75,0,0,0,.75-.75V13.91026a.75.75,0,0,0-.75-.75Z"/></svg>