<svg width="23" height="23" viewBox="0 0 14 14" fill="none" xmlns="http://www.w3.org/2000/svg">
<path d="M6.5625 0.0273438C7.16406 0.0273438 7.74284 0.104818 8.29883 0.259766C8.85482 0.414714 9.37435 0.635742 9.85742 0.922852C10.3451 1.2054 10.7871 1.54492 11.1836 1.94141C11.5801 2.33789 11.9196 2.77995 12.2021 3.26758C12.4893 3.75065 12.7103 4.27018 12.8652 4.82617C13.0202 5.38216 13.0977 5.96094 13.0977 6.5625C13.0977 7.16406 13.0202 7.74284 12.8652 8.29883C12.7103 8.85482 12.4893 9.37663 12.2021 9.86426C11.9196 10.3473 11.5801 10.7871 11.1836 11.1836C10.7871 11.5801 10.3451 11.9219 9.85742 12.209C9.37435 12.4915 8.85482 12.7103 8.29883 12.8652C7.74284 13.0202 7.16406 13.0977 6.5625 13.0977C5.96094 13.0977 5.38216 13.0202 4.82617 12.8652C4.27018 12.7103 3.74837 12.4915 3.26074 12.209C2.77767 11.9219 2.33789 11.5801 1.94141 11.1836C1.54492 10.7871 1.20312 10.3473 0.916016 9.86426C0.633464 9.37663 0.414714 8.85482 0.259766 8.29883C0.104818 7.74284 0.0273438 7.16406 0.0273438 6.5625C0.0273438 5.96094 0.104818 5.38216 0.259766 4.82617C0.414714 4.27018 0.633464 3.75065 0.916016 3.26758C1.20312 2.77995 1.54492 2.33789 1.94141 1.94141C2.33789 1.54492 2.77767 1.2054 3.26074 0.922852C3.74837 0.635742 4.27018 0.414714 4.82617 0.259766C5.38216 0.104818 5.96094 0.0273438 6.5625 0.0273438ZM6.5625 12.2773C7.08659 12.2773 7.59245 12.209 8.08008 12.0723C8.56771 11.9355 9.02344 11.7441 9.44727 11.498C9.87109 11.2474 10.2562 10.9489 10.6025 10.6025C10.9489 10.2562 11.2451 9.87109 11.4912 9.44727C11.7419 9.02344 11.9355 8.56771 12.0723 8.08008C12.209 7.59245 12.2773 7.08659 12.2773 6.5625C12.2773 6.03841 12.209 5.53255 12.0723 5.04492C11.9355 4.55729 11.7419 4.10156 11.4912 3.67773C11.2451 3.25391 10.9489 2.86882 10.6025 2.52246C10.2562 2.17611 9.87109 1.87988 9.44727 1.63379C9.02344 1.38314 8.56771 1.18945 8.08008 1.05273C7.59245 0.916016 7.08659 0.847656 6.5625 0.847656C6.03841 0.847656 5.53255 0.916016 5.04492 1.05273C4.55729 1.18945 4.10156 1.38314 3.67773 1.63379C3.25391 1.87988 2.86882 2.17611 2.52246 2.52246C2.17611 2.86882 1.8776 3.25391 1.62695 3.67773C1.38086 4.10156 1.18945 4.55729 1.05273 5.04492C0.916016 5.53255 0.847656 6.03841 0.847656 6.5625C0.847656 7.08659 0.916016 7.59245 1.05273 8.08008C1.18945 8.56771 1.38086 9.02344 1.62695 9.44727C1.8776 9.87109 2.17611 10.2562 2.52246 10.6025C2.86882 10.9489 3.25391 11.2474 3.67773 11.498C4.10156 11.7441 4.55729 11.9355 5.04492 12.0723C5.53255 12.209 6.03841 12.2773 6.5625 12.2773ZM6.125 9.625H7V10.5H6.125V9.625ZM6.5625 3.0625C6.86328 3.0625 7.14583 3.12174 7.41016 3.24023C7.67448 3.35417 7.90462 3.51139 8.10059 3.71191C8.30111 3.90788 8.45833 4.13802 8.57227 4.40234C8.69076 4.66667 8.75 4.94922 8.75 5.25C8.75 5.52344 8.70671 5.7627 8.62012 5.96777C8.53353 6.16829 8.42415 6.35059 8.29199 6.51465C8.16439 6.67871 8.02539 6.8291 7.875 6.96582C7.72461 7.09798 7.58333 7.23242 7.45117 7.36914C7.32357 7.5013 7.21647 7.64486 7.12988 7.7998C7.04329 7.9502 7 8.12109 7 8.3125V8.75H6.125V8.3125C6.125 8.03906 6.16829 7.80208 6.25488 7.60156C6.34147 7.39648 6.44857 7.21191 6.57617 7.04785C6.70833 6.88379 6.84961 6.73568 7 6.60352C7.15039 6.4668 7.28939 6.33236 7.41699 6.2002C7.54915 6.06348 7.65853 5.91992 7.74512 5.76953C7.83171 5.61914 7.875 5.44596 7.875 5.25C7.875 5.06771 7.84082 4.89681 7.77246 4.7373C7.7041 4.5778 7.61068 4.4388 7.49219 4.32031C7.3737 4.20182 7.2347 4.1084 7.0752 4.04004C6.91569 3.97168 6.74479 3.9375 6.5625 3.9375C6.38021 3.9375 6.20931 3.97168 6.0498 4.04004C5.8903 4.1084 5.7513 4.20182 5.63281 4.32031C5.51432 4.4388 5.4209 4.5778 5.35254 4.7373C5.28418 4.89681 5.25 5.06771 5.25 5.25H4.375C4.375 4.94922 4.43197 4.66667 4.5459 4.40234C4.65983 4.13802 4.81478 3.90788 5.01074 3.71191C5.21126 3.51139 5.44368 3.35417 5.70801 3.24023C5.97689 3.12174 6.26172 3.0625 6.5625 3.0625Z" fill="black"/>
</svg>
