<svg width="14" height="14" viewBox="0 0 14 14" fill="none" xmlns="http://www.w3.org/2000/svg">
<path
    transform="translate(1, 1.5) scale(0.75)"
    d="M12.25 0.875C12.373 0.875 12.487 0.897786 12.5918 0.943359C12.6966 0.988932 12.7878 1.05273 12.8652 1.13477C12.9473 1.21224 13.0111 1.30339 13.0566 1.4082C13.1022 1.51302 13.125 1.62695 13.125 1.75V13.125H2.44043L0.875 11.5527V1.75C0.875 1.62695 0.897786 1.51302 0.943359 1.4082C0.988932 1.30339 1.05046 1.21224 1.12793 1.13477C1.20996 1.05273 1.30339 0.988932 1.4082 0.943359C1.51302 0.897786 1.62695 0.875 1.75 0.875H12.25ZM3.5 6.125H10.5V1.75H3.5V6.125ZM8.75 9.625H4.375V12.25H5.25V10.5H6.125V12.25H8.75V9.625ZM12.25 1.75H11.375V7H2.625V1.75H1.75V11.1904L2.80273 12.25H3.5V8.75H9.625V12.25H12.25V1.75Z" fill="black"/>
</svg>
