<svg xmlns="http://www.w3.org/2000/svg" viewBox="0 0 2048 2048" width="16" height="16">
    <g transform="translate(0, 0) scale(70)">
        <circle cx="16.01657" cy="16.00686" r="4.56188" style="fill:none;stroke:#000;stroke-miterlimit:10" />
        <path
            d="M3.938,16.98954,9.9971,16.5012a5.99766,5.99766,0,0,1,2.86265-5.64127L9.6943,5.67251A12.03247,12.03247,0,0,0,3.938,16.98954Z"
            />
        <path d="M13.682,10.43443a6.041,6.041,0,0,1,6.26431.98889L23.90143,6.81A12.122,12.122,0,0,0,11.344,4.82017Z"
            />
        <path d="M20.60012,12.07717a6.041,6.041,0,0,1,.98889,6.2643l5.61426,2.33794A12.122,12.122,0,0,0,25.21345,8.122Z"
            />
        <path d="M14.61108,21.878a6.002,6.002,0,0,1-4.4656-4.4656l-5.9111,1.40735a12.04371,12.04371,0,0,0,8.96935,8.96935Z"
            />
        <path
            d="M21.16351,19.16368a5.99778,5.99778,0,0,1-5.64132,2.8627l-.48829,6.05909a12.03243,12.03243,0,0,0,11.317-5.75634Z"
        />
    </g>
</svg>