<?xml version="1.0" encoding="utf-8"?>
<!-- Generator: Adobe Illustrator 25.1.0, SVG Export Plug-In . SVG Version: 6.00 Build 0)  -->
<svg version="1.1" id="Layer_1" xmlns="http://www.w3.org/2000/svg" xmlns:xlink="http://www.w3.org/1999/xlink" x="0px" y="0px"
	 width="16px" height="16px" viewBox="0 0 16 16" enable-background="new 0 0 16 16" xml:space="preserve">
<path d="M1.5,10.9c0.331,0,0.6,0.269,0.6,0.6s-0.269,0.6-0.6,0.6s-0.6-0.269-0.6-0.6S1.169,10.9,1.5,10.9 M1.5,10
	C0.672,10,0,10.672,0,11.5S0.672,13,1.5,13S3,12.328,3,11.5S2.328,10,1.5,10L1.5,10z M14.5,3.9c0.331,0,0.6,0.269,0.6,0.6
	s-0.269,0.6-0.6,0.6s-0.6-0.269-0.6-0.6S14.169,3.9,14.5,3.9 M14.5,3C13.672,3,13,3.672,13,4.5S13.672,6,14.5,6S16,5.328,16,4.5
	S15.328,3,14.5,3L14.5,3z M4.091,10.616l8.244-4.44c-0.184-0.237-0.328-0.502-0.427-0.792L3.664,9.823
	C3.848,10.061,3.992,10.326,4.091,10.616z"/>
</svg>
