<svg xmlns="http://www.w3.org/2000/svg" viewBox="0 0 2048 2048" width="2048" height="2048">
  <path d="M640 128v512H128V128h512zM512 512V256H256v256h256zm-384 512q0-53 20-100t54-81 82-55 100-20q53 0 99 20t82 55 55 81 20 100q0 53-20 99t-55 82-81 55-100 20q-53 0-99-20t-82-55-55-81-20-100zm112 0q0 30 11 56t31 45 46 31 56 12q30 0 56-11t45-31 31-46 12-56q0-30-11-56t-31-45-46-31-56-12q-30 0-56 11t-45 31-31 46-12 56zm656-768h1152v128H896V256zm0 768V896h1152v128H896zm0 640v-128h1152v128H896zm-512 320L64 1408h640l-320 576zm0-263l102-185H282l102 185z" />
</svg>