<svg xmlns="http://www.w3.org/2000/svg" viewBox="0 0 32 32"><title>icons</title><path d="M17.406,12.46441h-.77714a5.28451,5.28451,0,0,0-.367-.963,8.6623,8.6623,0,0,0-.59224-1.05307,5.32769,5.32769,0,0,0-.7396-.90667,1.47135,1.47135,0,0,0-.77338-.44488c-.23371-.03-.52654-.05256-.88038-.06758s-.68141-.02252-.98175-.02252h-.65513V21.79007a1.48,1.48,0,0,0,.15768.6814,1.05043,1.05043,0,0,0,.55189.47868,6.67255,6.67255,0,0,0,.85034.214,6.25051,6.25051,0,0,0,1.008.14642l.00563.95839H6.66681l-.00563-.95839q.31536-.02253.963-.0901a3.70857,3.70857,0,0,0,.8954-.16895,1.0936,1.0936,0,0,0,.54625-.42236,1.36653,1.36653,0,0,0,.17457-.73771V9.00671H8.58713q-.34914,0-.86724.01689t-.99113.07321a1.37249,1.37249,0,0,0-.77151.44488,5.92281,5.92281,0,0,0-.73771.90667A7.655,7.655,0,0,0,4.6226,11.524a6.52876,6.52876,0,0,0-.36041.94045h-.7884V7.73105H17.406Z"/><path d="M27.87,15.07776H20.131a.65493.65493,0,0,1-.46311-1.118l3.86947-3.86947a.65492.65492,0,0,1,.92621,0l3.86947,3.86947A.65492.65492,0,0,1,27.87,15.07776Z"/></svg>