<svg width="32" height="32" viewBox="0 0 13 14" fill="none" xmlns="http://www.w3.org/2000/svg">
<path
    transform="translate(1, 1.5) scale(0.75)"
    d="M12.25 2.625H11.375V12.6875C11.375 12.8698 11.3408 13.0407 11.2725 13.2002C11.2041 13.3597 11.1107 13.4987 10.9922 13.6172C10.8737 13.7357 10.7347 13.8291 10.5752 13.8975C10.4157 13.9658 10.2448 14 10.0625 14H3.0625C2.88021 14 2.70931 13.9658 2.5498 13.8975C2.3903 13.8291 2.2513 13.7357 2.13281 13.6172C2.01432 13.4987 1.9209 13.3597 1.85254 13.2002C1.78418 13.0407 1.75 12.8698 1.75 12.6875V2.625H0.875V1.75H4.375V0.875C4.375 0.751953 4.39779 0.638021 4.44336 0.533203C4.48893 0.428385 4.55046 0.33724 4.62793 0.259766C4.70996 0.177734 4.80339 0.113932 4.9082 0.0683594C5.01302 0.0227865 5.12695 0 5.25 0H7.875C7.99805 0 8.11198 0.0227865 8.2168 0.0683594C8.32161 0.113932 8.41276 0.177734 8.49023 0.259766C8.57227 0.33724 8.63607 0.428385 8.68164 0.533203C8.72721 0.638021 8.75 0.751953 8.75 0.875V1.75H12.25V2.625ZM5.25 1.75H7.875V0.875H5.25V1.75ZM10.5 2.625H2.625V12.6875C2.625 12.806 2.66829 12.9085 2.75488 12.9951C2.84147 13.0817 2.94401 13.125 3.0625 13.125H10.0625C10.181 13.125 10.2835 13.0817 10.3701 12.9951C10.4567 12.9085 10.5 12.806 10.5 12.6875V2.625ZM5.25 11.375H4.375V4.375H5.25V11.375ZM7 11.375H6.125V4.375H7V11.375ZM8.75 11.375H7.875V4.375H8.75V11.375Z" fill="black"/>
</svg>
