<svg xmlns="http://www.w3.org/2000/svg" viewBox="0 0 32 32"><title>icons</title><rect x="11.52832" y="4.0459" width="16.52832" height="5.5752" rx="0.25" style="opacity:0.2"/><path d="M27.55672,4.546v4.5753H12.02821V4.546H27.55672m.25-1H11.77821a.75.75,0,0,0-.75.75v5.0753a.75.75,0,0,0,.75.75H27.80672a.75.75,0,0,0,.75-.75V4.296a.75.75,0,0,0-.75-.75Z"/><rect x="11.52832" y="13.21191" width="10.83105" height="5.57617" rx="0.25" style="opacity:0.2"/><path d="M21.85983,13.71236v4.57529H12.02821V13.71236h9.83162m.25-1H11.77821a.75.75,0,0,0-.75.75v5.07529a.75.75,0,0,0,.75.75H22.10983a.75.75,0,0,0,.75-.75V13.46236a.75.75,0,0,0-.75-.75Z"/><rect x="11.52832" y="22.37891" width="5.13477" height="5.5752" rx="0.25" style="opacity:0.2"/><path d="M16.163,22.87875V27.454H12.02821V22.87875H16.163m.25-1H11.77821a.75.75,0,0,0-.75.75V27.704a.75.75,0,0,0,.75.75H16.413a.75.75,0,0,0,.75-.75V22.62875a.75.75,0,0,0-.75-.75Z"/><path d="M7.8703,3.546a.56677.56677,0,0,0-.56677.56677V17.007H3.4433L8.43713,28.454V4.11273A.56678.56678,0,0,0,7.8703,3.546Z"/></svg>