<svg xmlns="http://www.w3.org/2000/svg" viewBox="0 0 2048 2048" width="2048" height="2048">
  <path d="M464 1414l315 314-319 318-74-74 179-180H384q-80 0-149-30t-122-82-83-122-30-150h128q0 53 20 99t54 82 82 55 100 20h181l-175-176 74-74zM1499 256l549 549v1243H768v-128h1152V896h-512V384H768v1107l-128-128V256h256V128h128v128h475zm37 512h293l-293-293v293zM768 0h128v128H768V0zM640 0v128H512V0h128zM384 0v128H256V0h128zM128 0v128H0V0h128zm0 256v128H0V256h128zm0 256v128H0V512h128zm0 256v128H0V768h128zm0 256v128H0v-128h128z" />
</svg>