<svg xmlns="http://www.w3.org/2000/svg" viewBox="0 0 32 32"><title>icons</title><line x1="16" y1="28.89924" x2="16" y2="29.89924" style="fill:none;stroke:#000;stroke-linecap:round;stroke-miterlimit:10;stroke-width:1.5px"/><line x1="16" y1="14.82252" x2="16" y2="17.17748" style="fill:none;stroke:#000;stroke-linecap:round;stroke-miterlimit:10;stroke-width:1.5px"/><line x1="16" y1="2.10076" x2="16" y2="3.10076" style="fill:none;stroke:#000;stroke-linecap:round;stroke-miterlimit:10;stroke-width:1.5px"/><rect x="8.5918" y="3.60059" width="14.81641" height="10.72168" rx="0.25" style="opacity:0.2"/><path d="M22.90819,4.10077v9.72176H9.09181V4.10077H22.90819m.25-1H8.84181a.75.75,0,0,0-.75.75V14.07253a.75.75,0,0,0,.75.75H23.15819a.75.75,0,0,0,.75-.75V3.85077a.75.75,0,0,0-.75-.75Z"/><rect x="12.04834" y="17.67773" width="7.90332" height="10.72168" rx="0.25" style="opacity:0.2"/><path d="M19.45185,18.17747v9.72176h-6.9037V18.17747h6.9037m.25-1h-7.4037a.75.75,0,0,0-.75.75V28.14923a.75.75,0,0,0,.75.75h7.4037a.75.75,0,0,0,.75-.75V17.92747a.75.75,0,0,0-.75-.75Z"/></svg>