<svg width="32" height="32" viewBox="0 0 12 12" fill="none" xmlns="http://www.w3.org/2000/svg">
<path d="M12 11.5898C12 11.6992 11.9668 11.7949 11.9004 11.877C11.834 11.959 11.7422 12 11.625 12C11.5234 12 11.4355 11.9629 11.3613 11.8887L6.76172 7.29492C6.38672 7.60352 5.97461 7.83984 5.52539 8.00391C5.08008 8.16797 4.61328 8.25 4.125 8.25C3.74609 8.25 3.38086 8.20117 3.0293 8.10352C2.67773 8.00586 2.34961 7.86719 2.04492 7.6875C1.74023 7.50781 1.46094 7.29297 1.20703 7.04297C0.957031 6.78906 0.742188 6.50977 0.5625 6.20508C0.382812 5.90039 0.244141 5.57227 0.146484 5.2207C0.0488281 4.86914 0 4.50391 0 4.125C0 3.74609 0.0488281 3.38086 0.146484 3.0293C0.244141 2.67773 0.382812 2.34961 0.5625 2.04492C0.742188 1.74023 0.957031 1.46289 1.20703 1.21289C1.46094 0.958984 1.74023 0.742188 2.04492 0.5625C2.34961 0.382812 2.67773 0.244141 3.0293 0.146484C3.38086 0.0488281 3.74609 0 4.125 0C4.50391 0 4.86914 0.0488281 5.2207 0.146484C5.57227 0.244141 5.90039 0.382812 6.20508 0.5625C6.50977 0.742188 6.78711 0.958984 7.03711 1.21289C7.29102 1.46289 7.50781 1.74023 7.6875 2.04492C7.86719 2.34961 8.00586 2.67773 8.10352 3.0293C8.20117 3.38086 8.25 3.74609 8.25 4.125C8.25 4.61328 8.16797 5.08203 8.00391 5.53125C7.83984 5.97656 7.60352 6.38672 7.29492 6.76172C7.35352 6.82031 7.46484 6.93164 7.62891 7.0957C7.79688 7.25977 7.99609 7.45508 8.22656 7.68164C8.46094 7.9082 8.71484 8.1582 8.98828 8.43164C9.26562 8.70117 9.54297 8.97656 9.82031 9.25781C10.1016 9.53516 10.373 9.80664 10.6348 10.0723C10.8965 10.3379 11.1289 10.5781 11.332 10.793C11.5352 11.0078 11.6973 11.1875 11.8184 11.332C11.9395 11.4727 12 11.5586 12 11.5898ZM4.125 7.5C4.58984 7.5 5.02734 7.41211 5.4375 7.23633C5.84766 7.05664 6.20508 6.81445 6.50977 6.50977C6.81445 6.20508 7.05469 5.84766 7.23047 5.4375C7.41016 5.02734 7.5 4.58984 7.5 4.125C7.5 3.66016 7.41016 3.22266 7.23047 2.8125C7.05469 2.40234 6.81445 2.04492 6.50977 1.74023C6.20508 1.43555 5.84766 1.19531 5.4375 1.01953C5.02734 0.839844 4.58984 0.75 4.125 0.75C3.66016 0.75 3.22266 0.839844 2.8125 1.01953C2.40234 1.19531 2.04492 1.43555 1.74023 1.74023C1.43555 2.04492 1.19336 2.40234 1.01367 2.8125C0.837891 3.22266 0.75 3.66016 0.75 4.125C0.75 4.58984 0.837891 5.02734 1.01367 5.4375C1.19336 5.84766 1.43555 6.20508 1.74023 6.50977C2.04492 6.81445 2.40234 7.05664 2.8125 7.23633C3.22266 7.41211 3.66016 7.5 4.125 7.5ZM2.25 3.75H6V4.5H2.25V3.75Z" fill="#252423"/>
</svg>
