<svg xmlns="http://www.w3.org/2000/svg" viewBox="0 0 32 32"><title>icons</title><line x1="3.27647" y1="21.24256" x2="19.76013" y2="4.75889" style="fill:none;stroke:#000;stroke-linecap:round;stroke-linejoin:round"/><line x1="3.27647" y1="21.24256" x2="6.14075" y2="24.10683" style="fill:none;stroke:#000;stroke-linecap:round;stroke-linejoin:round"/><line x1="19.76013" y1="4.75889" x2="22.62441" y2="7.62317" style="fill:none;stroke:#000;stroke-linecap:round;stroke-linejoin:round"/><line x1="6.5732" y1="17.94582" x2="8.55653" y2="19.92915" style="fill:none;stroke:#000;stroke-linecap:round;stroke-linejoin:round"/><line x1="9.86994" y1="14.64909" x2="11.85326" y2="16.63242" style="fill:none;stroke:#000;stroke-linecap:round;stroke-linejoin:round"/><line x1="13.16667" y1="11.35236" x2="15.14999" y2="13.33568" style="fill:none;stroke:#000;stroke-linecap:round;stroke-linejoin:round"/><line x1="16.4634" y1="8.05563" x2="18.44673" y2="10.03895" style="fill:none;stroke:#000;stroke-linecap:round;stroke-linejoin:round"/><path d="M9.9135,28.71913v.48047H7.8344v-.48047h.76172V26.5287c0-.08642.00195-.17578.00781-.26757l-.541.45214a.21472.21472,0,0,1-.17773.04688.21883.21883,0,0,1-.07129-.02735.16131.16131,0,0,1-.04687-.043L7.56487,26.412l1.1455-.97461h.52735v3.28174Z"/><path d="M13.12151,27.32118a3.07344,3.07344,0,0,1-.10547.85352,1.72518,1.72518,0,0,1-.291.59863,1.16312,1.16312,0,0,1-.43847.352,1.30187,1.30187,0,0,1-.54688.11573,1.28653,1.28653,0,0,1-.54492-.11573,1.16667,1.16667,0,0,1-.43457-.352,1.7407,1.7407,0,0,1-.28906-.59863,3.57641,3.57641,0,0,1,0-1.7085,1.74865,1.74865,0,0,1,.28906-.59765,1.17621,1.17621,0,0,1,.43457-.352,1.29366,1.29366,0,0,1,.54492-.11524,1.3091,1.3091,0,0,1,.54688.11524,1.17252,1.17252,0,0,1,.43847.352,1.733,1.733,0,0,1,.291.59765A3.06982,3.06982,0,0,1,13.12151,27.32118Zm-.66211,0a3.23435,3.23435,0,0,0-.05957-.67578,1.36823,1.36823,0,0,0-.16016-.42578.5785.5785,0,0,0-.23047-.22217.601.601,0,0,0-.26953-.064.595.595,0,0,0-.2666.064.579.579,0,0,0-.22754.22217,1.37176,1.37176,0,0,0-.15723.42578,3.92377,3.92377,0,0,0,0,1.35108,1.37035,1.37035,0,0,0,.15723.42627.58238.58238,0,0,0,.22754.22216.59448.59448,0,0,0,.2666.06348.60051.60051,0,0,0,.26953-.06348.58182.58182,0,0,0,.23047-.22216,1.36676,1.36676,0,0,0,.16016-.42627A3.22611,3.22611,0,0,0,12.4594,27.32118Z"/><path d="M25.37489,12.602a.22886.22886,0,0,1,.165.05859.20231.20231,0,0,1,.06055.1543v.38476H23.02333v-.21289a.39807.39807,0,0,1,.02735-.13672.35274.35274,0,0,1,.08691-.12842l1.14062-1.14306c.09571-.09717.18067-.18994.25586-.27832a1.78486,1.78486,0,0,0,.18848-.26221,1.227,1.227,0,0,0,.11621-.26367.99058.99058,0,0,0,.04-.28223.65708.65708,0,0,0-.03906-.2373.47778.47778,0,0,0-.11035-.17285.462.462,0,0,0-.17188-.10547A.71891.71891,0,0,0,24.121,9.974a.58349.58349,0,0,0-.17285.09082.572.572,0,0,0-.127.13671.58228.58228,0,0,0-.07812.17139.28205.28205,0,0,1-.11426.1582.31743.31743,0,0,1-.20215.01856l-.33789-.06006a1.38734,1.38734,0,0,1,.15039-.47412,1.14021,1.14021,0,0,1,.2793-.34033,1.15689,1.15689,0,0,1,.38476-.20508,1.53078,1.53078,0,0,1,.46583-.06885,1.4042,1.4042,0,0,1,.47558.07666,1.06668,1.06668,0,0,1,.36914.2168.98015.98015,0,0,1,.23926.33789,1.09831,1.09831,0,0,1,.08594.439,1.15932,1.15932,0,0,1-.06153.38428,1.6106,1.6106,0,0,1-.16406.33789,2.2768,2.2768,0,0,1-.24023.312q-.1377.15015-.28809.30664l-.84668.86475a2.01044,2.01044,0,0,1,.24219-.05566A1.42966,1.42966,0,0,1,24.411,12.602Z"/><path d="M28.72353,11.32118a3.07344,3.07344,0,0,1-.10547.85352,1.72518,1.72518,0,0,1-.291.59863,1.16312,1.16312,0,0,1-.43847.35205,1.30187,1.30187,0,0,1-.54688.11573,1.28653,1.28653,0,0,1-.54492-.11573,1.16667,1.16667,0,0,1-.43457-.35205,1.7407,1.7407,0,0,1-.28906-.59863,3.57641,3.57641,0,0,1,0-1.7085,1.74865,1.74865,0,0,1,.28906-.59765,1.17621,1.17621,0,0,1,.43457-.35205,1.29366,1.29366,0,0,1,.54492-.11524,1.3091,1.3091,0,0,1,.54688.11524,1.17252,1.17252,0,0,1,.43847.35205,1.733,1.733,0,0,1,.291.59765A3.06982,3.06982,0,0,1,28.72353,11.32118Zm-.66211,0a3.23435,3.23435,0,0,0-.05957-.67578,1.36823,1.36823,0,0,0-.16016-.42578.5785.5785,0,0,0-.23047-.22217.601.601,0,0,0-.26953-.064.595.595,0,0,0-.2666.064.579.579,0,0,0-.22754.22217,1.37176,1.37176,0,0,0-.15723.42578,3.2423,3.2423,0,0,0-.05859.67578,3.23408,3.23408,0,0,0,.05859.6753,1.37035,1.37035,0,0,0,.15723.42627.58238.58238,0,0,0,.22754.22216.59448.59448,0,0,0,.2666.06348.60051.60051,0,0,0,.26953-.06348.58182.58182,0,0,0,.23047-.22216,1.36676,1.36676,0,0,0,.16016-.42627A3.22611,3.22611,0,0,0,28.06142,11.32118Z"/></svg>