<svg xmlns="http://www.w3.org/2000/svg" viewBox="0 0 32 32"><title>icons</title><path d="M4.36041,20.64873c10.58017-.11363,8.68667,4.39448,23.42625,4.39243" style="fill:none;stroke:#000;stroke-linecap:round;stroke-miterlimit:10;stroke-width:1.5px"/><line x1="4.36041" y1="20.64873" x2="4.21361" y2="6.95941" style="fill:none;stroke:#000;stroke-linecap:round;stroke-miterlimit:10;stroke-width:1.5px"/><path d="M28.2117,11.35111a.42756.42756,0,0,0-.42781-.4278l-.00585.0012-.00584-.0012c-5.08355,0-6.40707-.55481-8.41074-1.39455q-.33536-.14054-.67346-.27861L18.68466,9.248l-.003-.00047a33.96931,33.96931,0,0,0-7.01619-2.116.40068.40068,0,0,0-.06052-.02423.42.42,0,0,0-.06278.00177,40.64866,40.64866,0,0,0-7.33192-.57747.42781.42781,0,0,0,.00334.85561H4.217a39.22365,39.22365,0,0,1,6.8131.48635l-.457,2.50657a34.57365,34.57365,0,0,0-6.32847-.42608.42782.42782,0,0,0,.00585.85561h.00584a33.76559,33.76559,0,0,1,6.163.41392l-.46305,2.53952A33.179,33.179,0,0,0,4.283,13.37567a.42759.42759,0,0,0-.42363.432.41047.41047,0,0,0,.432.42362,31.71428,31.71428,0,0,1,5.51218.369l-.45977,2.5215a29.288,29.288,0,0,0-5.02484-.32362.42782.42782,0,0,0,.005.85561h.005a28.21672,28.21672,0,0,1,4.86039.31506L8.6521,20.91492a.429.429,0,0,0,.34425.498.48771.48771,0,0,0,.07771.00669.42811.42811,0,0,0,.42028-.35094l.53769-2.94889a22.46227,22.46227,0,0,1,4.26328,1.34817l-1.07939,2.80643a.4285.4285,0,0,0,.24566.55314.43452.43452,0,0,0,.15374.02841.42785.42785,0,0,0,.3994-.27406L15.086,19.79658a28.09946,28.09946,0,0,0,3.34046,1.22258l-.69931,2.93135a.42779.42779,0,0,0,.31667.51554.40922.40922,0,0,0,.09943.01169.42786.42786,0,0,0,.41611-.32837l.69529-2.91443a26.64308,26.64308,0,0,0,3.60622.59116l-.2432,2.99339a.42761.42761,0,0,0,.39188.46039l.03509.00167a.42694.42694,0,0,0,.4253-.39355l.24273-2.98743c1.07067.083,2.27617.13269,3.64539.14147l.00057,2.99887a.42781.42781,0,0,0,.85562,0ZM17.70705,13.47343a24.30347,24.30347,0,0,0,2.31079.87483l-.59721,2.50334a26.12606,26.12606,0,0,1-2.73045-1.02106l-.06794-.02835.92167-2.39639C17.59827,13.42847,17.65264,13.45061,17.70705,13.47343Zm3.13559,1.10482a19.00835,19.00835,0,0,0,2.57206.43063L23.207,17.56605a21.74466,21.74466,0,0,1-2.96017-.49021Zm2.84905-2.97866-.20764,2.55561a18.21214,18.21214,0,0,1-2.44213-.41225l.59586-2.49769A15.10014,15.10014,0,0,0,23.69169,11.59959Zm3.66492,2.74277c-1.16211-.00757-2.15825-.04585-3.02091-.11113l.20748-2.55347c.7896.05818,1.71728.091,2.813.09813Zm-3.09021.742c.88486.06653,1.90382.1057,3.09037.11348l.00047,2.56668c-1.256-.00794-2.34411-.05086-3.29858-.12314Zm-3.45164-4.07664-.59748,2.50448c-.78036-.24278-1.45612-.52436-2.17935-.82757-.0623-.02611-.12455-.05149-.18685-.07744l.92173-2.39649c.0858.03567.17218.07092.25777.1068C19.64759,10.57608,20.20438,10.80789,20.81476,11.00775ZM11.87224,8.02752a32.76856,32.76856,0,0,1,6.108,1.85943l-.92141,2.39565a30.82989,30.82989,0,0,0-5.64373-1.74814Zm-.61095,3.3507A30.03422,30.03422,0,0,1,16.7518,13.081l-.92042,2.39315a25.97524,25.97524,0,0,0-5.03247-1.56025ZM10.1866,17.272l.45961-2.52047a25.29988,25.29988,0,0,1,4.87805,1.52114l-.92157,2.39607A22.82749,22.82749,0,0,0,10.1866,17.272Zm5.20658,1.72584.92178-2.39669.0694.029A26.6229,26.6229,0,0,0,19.221,17.68841l-.595,2.49414A27.61749,27.61749,0,0,1,15.39318,18.99783ZM19.45405,20.399l.5934-2.48751a22.5338,22.5338,0,0,0,3.09011.5086l-.20732,2.55179A25.83644,25.83644,0,0,1,19.45405,20.399Zm4.32788.64829.20738-2.55258c.97619.07353,2.08754.11724,3.36808.12534l.00047,2.56652C26.01324,21.178,24.83113,21.129,23.78193,21.04725Z" style="opacity:0.5"/></svg>