<svg xmlns="http://www.w3.org/2000/svg" viewBox="0 0 32 32"><title>icons</title><path d="M27.5,16.5a.5.5,0,0,0,0-1H22.25V10.75H27.5a.5.5,0,0,0,0-1H22.25V4.5a.5.5,0,0,0-1,0V9.75H16.5V4.5a.5.5,0,0,0-1,0V9.75H10.75V4.5a.5.5,0,0,0-1,0V9.75H4.5a.5.5,0,0,0,0,1H9.75V15.5H4.5a.5.5,0,0,0,0,1H9.75v4.75H4.5a.5.5,0,0,0,0,1H9.75V27.5a.5.5,0,0,0,1,0V22.25H15.5V27.5a.5.5,0,0,0,1,0V22.25h4.75V27.5a.5.5,0,0,0,1,0V22.25H27.5a.5.5,0,0,0,0-1H22.25V16.5Zm-6.25-5.75V15.5H16.5V10.75Zm-10.5,0H15.5V15.5H10.75Zm0,10.5V16.5H15.5v4.75Zm10.5,0H16.5V16.5h4.75Z" style="opacity:0.5"/><polyline points="27.5 27.5 4.5 27.5 4.5 4.5" style="fill:none;stroke:#000;stroke-linecap:round;stroke-linejoin:round;stroke-width:1.5px"/></svg>