<svg width="32" height="32" viewBox="0 0 32 32" fill="none" xmlns="http://www.w3.org/2000/svg">
<path d="M4 17.75C3.88281 17.75 3.76854 17.7385 3.65819 17.7167L3.60968 17.9619C3.34729 17.91 3.10335 17.8068 2.88877 17.6631L3.02785 17.4554C2.8369 17.3276 2.67245 17.1631 2.54461 16.9722L2.33687 17.1112C2.19321 16.8966 2.08998 16.6527 2.03807 16.3903L2.28332 16.3418C2.26148 16.2315 2.25 16.1172 2.25 16V15.5H2V14.5H2.25V13.5H2V12.5H2.25V11.5H2V10.5H2.25V9.5H2V8.5H2.25V7.5H2V6.5H2.25V5.5H2V4.5H2.25V4C2.25 3.88281 2.26148 3.76854 2.28332 3.65819L2.03807 3.60968C2.08998 3.34729 2.19321 3.10335 2.33687 2.88877L2.54461 3.02785C2.67245 2.8369 2.8369 2.67245 3.02785 2.54461L2.88877 2.33687C3.10335 2.19321 3.34729 2.08998 3.60968 2.03807L3.65819 2.28332C3.76854 2.26148 3.88281 2.25 4 2.25H4.47222V2H5.41667V2.25H6.36111V2H7.30556V2.25H8.25V2H9.19445V2.25H10.1389V2H11.0833V2.25H12.0278V2H12.9722V2.25H13.9167V2H14.8611V2.25H15.8056V2H16.75V2.25H17.6944V2H18.6389V2.25H19.5833V2H20.5278V2.25H21C21.1172 2.25 21.2315 2.26148 21.3418 2.28332L21.3903 2.03807C21.6527 2.08998 21.8966 2.19321 22.1112 2.33687L21.9722 2.54461C22.1631 2.67245 22.3276 2.8369 22.4554 3.02785L22.6631 2.88877C22.8068 3.10335 22.91 3.34729 22.9619 3.60968L22.7167 3.65819C22.7385 3.76854 22.75 3.88281 22.75 4V4.5H23V5.5H22.75V6.5H23V7.5H22.75V8.5H23V9.5H22.75V10V10.5H23V11.5H22.75V12V12.4429H23V13.3286H22.75V13.7714C22.75 13.7914 22.748 13.8111 22.7442 13.8303L22.9894 13.8791C22.9753 13.9502 22.9473 14.0178 22.907 14.078L22.6991 13.9391C22.6882 13.9554 22.6757 13.9707 22.6616 13.9848C22.6353 14.0112 22.6054 14.0315 22.5736 14.046L22.6774 14.2735C22.5567 14.3285 22.4196 14.3383 22.2924 14.3008L22.3629 14.061C22.3294 14.0511 22.297 14.0352 22.2672 14.0129L21.9604 13.7828L21.8104 13.9828L21.1969 13.5227L21.3469 13.3227L21.0401 13.0926C20.9682 13.0386 20.8932 12.9892 20.8158 12.9444L20.6907 13.1609C20.5525 13.081 20.4052 13.018 20.252 12.9731L20.3222 12.7332C20.2363 12.7081 20.1488 12.688 20.06 12.6732L19.606 12.5975L19.5649 12.8441L18.6567 12.6928L18.6978 12.4462L18.2437 12.3705C18.1164 12.3493 17.9882 12.3392 17.8605 12.3399L17.862 12.5899C17.6333 12.5913 17.4066 12.6318 17.1916 12.7098L17.1064 12.4748C16.9863 12.5184 16.8696 12.5723 16.7575 12.6363L16.1686 12.9729L16.2926 13.1899L15.1147 13.863L14.9907 13.646L14.4017 13.9825C14.3056 14.0374 14.214 14.0992 14.1276 14.1671L14.2821 14.3636C14.1278 14.485 13.9921 14.6284 13.8795 14.7893L13.6747 14.6459C13.6117 14.7359 13.5551 14.8308 13.5056 14.9298L13.3392 15.2627L13.5628 15.3745L13.2299 16.0402L13.0063 15.9284L12.8399 16.2613C12.828 16.285 12.8165 16.309 12.8055 16.3332L13.0329 16.437C13.0133 16.4799 12.9952 16.5236 12.9787 16.5678L12.7445 16.4804C12.7352 16.5053 12.7264 16.5304 12.718 16.5556C12.6592 16.732 12.5742 16.894 12.4682 17.038L12.6696 17.1861C12.4215 17.5235 12.0727 17.7749 11.6743 17.9036L11.5974 17.6657C11.4273 17.7206 11.2467 17.75 11.0608 17.75H10.7643V18H10.1714V17.75H9.875H9.21875V18H7.90625V17.75H7.25H6.84375V18H6.03125V17.75H5.21875V18H4.40625V17.75H4Z" stroke="black" stroke-width="0.5" stroke-linejoin="round" stroke-dasharray="1 1"/>
<path d="M29.833 29.042C29.9443 29.1533 30 29.2851 30 29.4375C30 29.5899 29.9443 29.7217 29.833 29.833C29.7217 29.9443 29.5899 30 29.4375 30C29.2851 30 29.1533 29.9443 29.042 29.833L22.1426 22.9424C21.5801 23.4053 20.9619 23.7598 20.2881 24.0059C19.6201 24.252 18.9199 24.375 18.1875 24.375C17.6191 24.375 17.0713 24.3018 16.5439 24.1553C16.0166 24.0088 15.5244 23.8008 15.0674 23.5312C14.6103 23.2617 14.1914 22.9395 13.8105 22.5645C13.4355 22.1836 13.1133 21.7647 12.8438 21.3076C12.5742 20.8506 12.3662 20.3584 12.2197 19.831C12.0732 19.3037 12 18.7559 12 18.1875C12 17.6191 12.0732 17.0713 12.2197 16.5439C12.3662 16.0166 12.5742 15.5244 12.8438 15.0674C13.1133 14.6103 13.4355 14.1943 13.8105 13.8193C14.1914 13.4385 14.6103 13.1133 15.0674 12.8438C15.5244 12.5742 16.0166 12.3662 16.5439 12.2197C17.0713 12.0732 17.6191 12 18.1875 12C18.7559 12 19.3037 12.0732 19.831 12.2197C20.3584 12.3662 20.8506 12.5742 21.3076 12.8438C21.7647 13.1133 22.1807 13.4385 22.5557 13.8193C22.9365 14.1943 23.2617 14.6103 23.5312 15.0674C23.8008 15.5244 24.0088 16.0166 24.1553 16.5439C24.3018 17.0713 24.375 17.6191 24.375 18.1875C24.375 18.9199 24.252 19.623 24.0059 20.2969C23.7598 20.9648 23.4053 21.5801 22.9424 22.1426L29.833 29.042ZM18.1875 23.25C18.8848 23.25 19.541 23.1182 20.1562 22.8545C20.7715 22.585 21.3076 22.2217 21.7647 21.7647C22.2217 21.3076 22.582 20.7715 22.8457 20.1562C23.1152 19.541 23.25 18.8848 23.25 18.1875C23.25 17.4902 23.1152 16.834 22.8457 16.2188C22.582 15.6035 22.2217 15.0674 21.7647 14.6103C21.3076 14.1533 20.7715 13.793 20.1562 13.5293C19.541 13.2598 18.8848 13.125 18.1875 13.125C17.4902 13.125 16.834 13.2598 16.2188 13.5293C15.6035 13.793 15.0674 14.1533 14.6103 14.6103C14.1533 15.0674 13.79 15.6035 13.5205 16.2188C13.2568 16.834 13.125 17.4902 13.125 18.1875C13.125 18.8848 13.2568 19.541 13.5205 20.1562C13.79 20.7715 14.1533 21.3076 14.6103 21.7647C15.0674 22.2217 15.6035 22.585 16.2188 22.8545C16.834 23.1182 17.4902 23.25 18.1875 23.25ZM18.75 17.625H21V18.75H18.75V21H17.625V18.75H15.375V17.625H17.625V15.375H18.75V17.625Z" fill="#252423"/>
</svg>
